<?xml version="1.0" encoding="UTF-8"?>
<svg xmlns="http://www.w3.org/2000/svg" width="40" height="40" viewBox="0 0 40 40" fill="none">
  <circle cx="20" cy="20" r="20" fill="#FDEFCA"></circle>
  <g clip-path="url(#clip0_929_1221)">
    <rect width="18" height="18" transform="translate(11 11)" fill="#FDEFCA"></rect>
    <path d="M25.0343 20.0001H21.4995C21.1017 20.0001 20.7201 19.8421 20.4388 19.5608C20.1575 19.2794 19.9995 18.8979 19.9995 18.5001V14.9556C20.0005 14.6106 19.9222 14.27 19.7706 13.96C19.6189 13.6501 19.398 13.3793 19.125 13.1683C18.8663 12.9635 18.5639 12.8208 18.2413 12.7513C17.9186 12.6819 17.5844 12.6875 17.2643 12.7678C15.446 13.2192 13.8363 14.2776 12.7012 15.7681C11.5662 17.2586 10.9739 19.0918 11.0223 20.9646C11.0706 22.8375 11.7568 24.6377 12.9672 26.0676C14.1776 27.4975 15.8399 28.4714 17.679 28.8283C19.7468 29.2241 21.8877 28.8144 23.6633 27.683C25.4388 26.5517 26.7147 24.7843 27.2295 22.7428C27.3101 22.4223 27.316 22.0876 27.2467 21.7644C27.1774 21.4413 27.0347 21.1384 26.8298 20.8791C26.6163 20.6064 26.3439 20.3857 26.0329 20.2334C25.7219 20.0812 25.3805 20.0014 25.0343 20.0001ZM25.7753 22.3761C25.4881 23.5325 24.8989 24.5919 24.068 25.4459C23.2371 26.2998 22.1942 26.9178 21.0461 27.2365C19.898 27.5553 18.6859 27.5633 17.5337 27.2599C16.3814 26.9564 15.3305 26.3523 14.4883 25.5095C13.6461 24.6666 13.0429 23.6151 12.7404 22.4626C12.4379 21.3102 12.447 20.098 12.7667 18.9502C13.0863 17.8023 13.7052 16.76 14.5598 15.9298C15.4145 15.0996 16.4744 14.5113 17.631 14.2251C17.73 14.2004 17.8333 14.1992 17.9328 14.2216C18.0323 14.244 18.1252 14.2894 18.204 14.3541C18.2971 14.4251 18.3725 14.5165 18.4246 14.6213C18.4766 14.7262 18.5038 14.8416 18.504 14.9586V18.5001C18.504 19.2957 18.8201 20.0588 19.3827 20.6214C19.9453 21.184 20.7084 21.5001 21.504 21.5001H25.038C25.1561 21.5006 25.2725 21.5278 25.3785 21.5798C25.4845 21.6317 25.5773 21.7071 25.65 21.8001C25.7138 21.88 25.7582 21.9736 25.7798 22.0735C25.8014 22.1734 25.8003 22.277 25.7753 22.3761Z" fill="#D6A82F"></path>
    <path d="M28.7396 16.5844C28.3943 15.315 27.7235 14.1578 26.7937 13.2273C25.8638 12.2967 24.707 11.6251 23.4379 11.2789C23.3048 11.2432 23.1677 11.225 23.0299 11.2249C22.8317 11.223 22.6351 11.2604 22.4515 11.335C22.2678 11.4095 22.1008 11.5197 21.96 11.6592C21.8192 11.7987 21.7074 11.9647 21.6312 12.1476C21.5549 12.3305 21.5156 12.5267 21.5156 12.7249V16.2499C21.5156 16.8467 21.7527 17.419 22.1746 17.8409C22.5966 18.2629 23.1689 18.4999 23.7656 18.4999H27.3049C27.5364 18.4977 27.7642 18.4421 27.9708 18.3375C28.1773 18.2329 28.357 18.0821 28.4958 17.8968C28.6345 17.7115 28.7287 17.4967 28.771 17.2691C28.8133 17.0415 28.8026 16.8072 28.7396 16.5844ZM26.8661 16.9999H23.7626C23.5637 16.9999 23.3729 16.9209 23.2323 16.7803C23.0916 16.6396 23.0126 16.4488 23.0126 16.2499L23.0066 12.7302C23.0121 12.7262 23.0186 12.7239 23.0254 12.7234H23.0449C24.0665 13.0017 24.9972 13.5431 25.7441 14.2935C26.4911 15.0439 27.0282 15.9771 27.3019 16.9999H26.8661Z" fill="#D6A82F"></path>
  </g>
  <defs>
    <clipPath id="clip0_929_1221">
      <rect width="18" height="18" fill="white" transform="translate(11 11)"></rect>
    </clipPath>
  </defs>
</svg>
