<svg width="1443" height="732" viewBox="0 0 1443 732" fill="none" xmlns="http://www.w3.org/2000/svg">
<g clip-path="url(#clip0_2_3130)">
<rect width="1443" height="732" fill="url(#paint0_linear_2_3130)" fill-opacity="0.7"/>
<g opacity="0.6">
<path d="M465.475 722.102C449.677 697.094 438.174 669.844 460.24 645.753C489.171 614.189 569.421 596.504 647.145 592.459C724.869 588.404 803.145 595.099 881.213 597.68C959.282 600.26 1042.88 598.028 1107.24 578.67C1196.47 551.828 1225.77 499.521 1306.3 467.907C1373.44 441.554 1474.79 432.856 1560 446.157" stroke="#D8D8D8" stroke-miterlimit="10"/>
<path d="M524.602 722.102C509.654 698.449 498.771 672.664 519.643 649.878C547.013 620.018 622.923 603.289 696.445 599.463C769.99 595.627 844.018 601.964 917.861 604.405C991.705 606.846 1070.81 604.734 1131.68 586.421C1216.11 561.025 1243.8 511.547 1319.98 481.647C1383.49 456.719 1479.38 448.489 1559.98 461.073" stroke="#D8D8D8" stroke-miterlimit="10"/>
<path d="M583.73 722.102C569.654 699.794 559.368 675.493 579.069 654.002C604.877 625.846 676.448 610.074 745.791 606.467C815.134 602.851 884.937 608.829 954.579 611.12C1024.22 613.422 1098.8 611.429 1156.18 594.163C1235.79 570.221 1261.89 523.562 1333.72 495.366C1393.6 471.853 1484 464.101 1560 475.968" stroke="#D8D8D8" stroke-miterlimit="10"/>
<path d="M642.849 722.102C629.624 701.149 619.957 678.313 638.464 658.127C662.711 631.675 729.942 616.859 795.083 613.472C860.224 610.084 925.802 615.683 991.219 617.845C1056.64 620.007 1126.69 618.134 1180.6 601.914C1255.39 579.427 1279.91 535.588 1347.4 509.106C1403.65 487.017 1488.58 479.734 1559.97 490.883" stroke="#D8D8D8" stroke-miterlimit="10"/>
<path d="M701.979 722.102C689.602 702.494 680.579 681.133 697.868 662.252C720.531 637.503 783.445 623.644 844.385 620.476C905.324 617.297 966.677 622.548 1027.87 624.571C1089.06 626.593 1154.62 624.84 1205.06 609.666C1275.03 588.623 1297.99 547.614 1361.11 522.835C1413.73 502.171 1493.2 495.356 1559.98 505.788" stroke="#D8D8D8" stroke-miterlimit="10"/>
<path d="M518.052 -5.99995C501.733 14.212 489.85 36.2357 512.644 55.7068C542.53 81.2173 625.429 95.5106 705.718 98.7799C786.008 102.057 866.866 96.6459 947.512 94.5603C1028.16 92.4747 1114.52 94.2785 1181 109.925C1273.18 131.618 1303.44 173.894 1386.63 199.445C1455.98 220.744 1560.68 227.774 1648.7 217.024" stroke="#D8D8D8" stroke-miterlimit="10"/>
<path d="M579.132 -6.00005C563.691 13.1167 552.448 33.9568 574.009 52.3729C602.282 76.5064 680.698 90.0267 756.647 93.1188C832.62 96.2191 909.09 91.0976 985.371 89.1247C1061.65 87.1519 1143.36 88.8591 1206.24 103.66C1293.46 124.186 1322.07 164.175 1400.77 188.34C1466.37 208.488 1565.42 215.139 1648.68 204.969" stroke="#D8D8D8" stroke-miterlimit="10"/>
<path d="M640.209 -6.00002C625.669 12.0296 615.043 31.6699 635.394 49.0392C662.054 71.7957 735.987 84.5429 807.619 87.4579C879.251 90.381 951.358 85.5495 1023.3 83.6974C1095.24 81.8372 1172.28 83.4478 1231.55 97.4028C1313.79 116.753 1340.76 154.463 1414.95 177.252C1476.81 196.256 1570.19 202.521 1648.7 192.93" stroke="#D8D8D8" stroke-miterlimit="10"/>
<path d="M701.282 -5.99997C687.62 10.9345 677.634 29.391 696.752 45.7055C721.799 67.085 791.249 79.0592 858.54 81.797C925.832 84.5349 993.574 80.0094 1061.15 78.262C1128.73 76.5146 1201.09 78.0284 1256.79 91.138C1334.04 109.313 1359.37 144.744 1429.08 166.148C1487.19 184 1574.93 189.886 1648.67 180.876" stroke="#D8D8D8" stroke-miterlimit="10"/>
<path d="M762.36 -5.99997C749.576 9.84745 740.254 27.1121 758.115 42.3717C781.525 62.3743 846.516 73.5753 909.467 76.1361C972.418 78.7048 1035.8 74.4611 1099.01 72.8265C1162.22 71.1918 1229.94 72.6091 1282.05 84.8731C1354.32 101.88 1378.04 135.024 1443.24 155.051C1497.61 171.752 1579.7 177.26 1648.68 168.829" stroke="#D8D8D8" stroke-miterlimit="10"/>
</g>
</g>
<defs>
<linearGradient id="paint0_linear_2_3130" x1="1681.48" y1="-185.611" x2="-335.705" y2="1222.95" gradientUnits="userSpaceOnUse">
<stop stop-color="#E47B00"/>
<stop offset="0.900716" stop-color="#D55592"/>
</linearGradient>
<clipPath id="clip0_2_3130">
<rect width="1443" height="732" fill="white"/>
</clipPath>
</defs>
</svg>
