<?xml version="1.0" encoding="UTF-8"?>
<svg xmlns="http://www.w3.org/2000/svg" width="40" height="40" viewBox="0 0 40 40" fill="none">
  <circle cx="20" cy="20" r="20" fill="#BAE9B7"></circle>
  <g clip-path="url(#clip0_929_830)">
    <path d="M20 11C15.0373 11 11 15.0373 11 20C11 24.9628 15.0373 29 20 29C24.9628 29 29 24.9628 29 20C29 15.0373 24.9628 11 20 11ZM20 27.5C15.8645 27.5 12.5 24.1355 12.5 20C12.5 15.8645 15.8645 12.5 20 12.5C24.1355 12.5 27.5 15.8645 27.5 20C27.5 24.1355 24.1355 27.5 20 27.5ZM23 21.5C23 22.7405 21.9905 23.75 20.75 23.75V24.5C20.75 24.9148 20.4148 25.25 20 25.25C19.5852 25.25 19.25 24.9148 19.25 24.5V23.75H19.049C18.2488 23.75 17.5017 23.3195 17.1005 22.6258C16.8927 22.2665 17.0157 21.8083 17.3735 21.6012C17.7327 21.392 18.1918 21.5165 18.398 21.8742C18.5323 22.1067 18.7812 22.25 19.0483 22.25H20.7492C21.1632 22.25 21.4992 21.914 21.4992 21.5C21.4992 21.2165 21.296 20.9765 21.0162 20.93L18.7355 20.5497C17.729 20.3825 16.9992 19.52 16.9992 18.5C16.9992 17.2595 18.0087 16.25 19.2492 16.25V15.5C19.2492 15.086 19.5845 14.75 19.9992 14.75C20.414 14.75 20.7492 15.086 20.7492 15.5V16.25H20.9503C21.7505 16.25 22.4975 16.6813 22.8988 17.375C23.1065 17.7335 22.9835 18.1918 22.6258 18.3995C22.2657 18.6073 21.8075 18.4843 21.6012 18.1258C21.467 17.894 21.218 17.7508 20.951 17.7508H19.25C18.836 17.7508 18.5 18.0875 18.5 18.5008C18.5 18.7843 18.7032 19.0243 18.983 19.0707L21.2638 19.451C22.2703 19.6182 23 20.4808 23 21.5008V21.5Z" fill="#54AB4E"></path>
  </g>
  <defs>
    <clipPath id="clip0_929_830">
      <rect width="18" height="18" fill="white" transform="translate(11 11)"></rect>
    </clipPath>
  </defs>
</svg>
