<svg width="30" height="25" viewBox="0 0 30 25" fill="none" xmlns="http://www.w3.org/2000/svg">
<path d="M27 0.553467H3C1.35 0.553467 0 1.90347 0 3.55347V21.5535C0 23.2035 1.35 24.5535 3 24.5535H27C28.65 24.5535 30 23.2035 30 21.5535V3.55347C30 1.90347 28.65 0.553467 27 0.553467ZM26.4 6.92847L16.59 13.0635C15.615 13.6785 14.385 13.6785 13.41 13.0635L3.6 6.92847C3.44959 6.84403 3.31788 6.72996 3.21283 6.59315C3.10779 6.45634 3.03159 6.29963 2.98886 6.13252C2.94613 5.96541 2.93775 5.79137 2.96423 5.62093C2.99072 5.45048 3.0515 5.28719 3.14292 5.14092C3.23434 4.99465 3.35449 4.86845 3.49609 4.76996C3.63769 4.67147 3.79781 4.60273 3.96674 4.56791C4.13568 4.5331 4.30992 4.53292 4.47893 4.56739C4.64794 4.60186 4.8082 4.67027 4.95 4.76847L15 11.0535L25.05 4.76847C25.1918 4.67027 25.3521 4.60186 25.5211 4.56739C25.6901 4.53292 25.8643 4.5331 26.0333 4.56791C26.2022 4.60273 26.3623 4.67147 26.5039 4.76996C26.6455 4.86845 26.7657 4.99465 26.8571 5.14092C26.9485 5.28719 27.0093 5.45048 27.0358 5.62093C27.0622 5.79137 27.0539 5.96541 27.0111 6.13252C26.9684 6.29963 26.8922 6.45634 26.7872 6.59315C26.6821 6.72996 26.5504 6.84403 26.4 6.92847Z" fill="white"/>
</svg>
