<svg width="24" height="25" viewBox="0 0 24 25" fill="none" xmlns="http://www.w3.org/2000/svg">
<path fill-rule="evenodd" clip-rule="evenodd" d="M5.14328 0.553467C3.77954 0.553467 2.47163 1.09508 1.50713 2.0592C0.542635 3.02333 0.00052371 4.33103 0 5.69477V19.4102C0 20.7743 0.54188 22.0825 1.50643 23.047C2.47098 24.0116 3.7792 24.5535 5.14328 24.5535H18.8587C20.2224 24.5529 21.5301 24.0108 22.4943 23.0463C23.4584 22.0818 24 20.7739 24 19.4102V5.69477C23.9995 4.33137 23.4576 3.02397 22.4936 2.0599C21.5295 1.09583 20.2221 0.55399 18.8587 0.553467H5.14328ZM20.3381 5.70267C20.3381 6.09555 20.182 6.47234 19.9042 6.75015C19.6264 7.02796 19.2496 7.18403 18.8567 7.18403C18.4638 7.18403 18.087 7.02796 17.8092 6.75015C17.5314 6.47234 17.3754 6.09555 17.3754 5.70267C17.3754 5.30979 17.5314 4.933 17.8092 4.65519C18.087 4.37738 18.4638 4.22131 18.8567 4.22131C19.2496 4.22131 19.6264 4.37738 19.9042 4.65519C20.182 4.933 20.3381 5.30979 20.3381 5.70267ZM12.003 8.44418C10.9134 8.44418 9.86841 8.87701 9.09795 9.64747C8.3275 10.4179 7.89466 11.4629 7.89466 12.5525C7.89466 13.6421 8.3275 14.687 9.09795 15.4575C9.86841 16.2279 10.9134 16.6608 12.003 16.6608C13.0926 16.6608 14.1375 16.2279 14.908 15.4575C15.6784 14.687 16.1113 13.6421 16.1113 12.5525C16.1113 11.4629 15.6784 10.4179 14.908 9.64747C14.1375 8.87701 13.0926 8.44418 12.003 8.44418ZM5.91754 12.5525C5.91754 10.939 6.55847 9.3917 7.69934 8.25083C8.84021 7.10996 10.3876 6.46903 12.001 6.46903C13.6144 6.46903 15.1618 7.10996 16.3026 8.25083C17.4435 9.3917 18.0844 10.939 18.0844 12.5525C18.0844 14.1659 17.4435 15.7133 16.3026 16.8541C15.1618 17.995 13.6144 18.6359 12.001 18.6359C10.3876 18.6359 8.84021 17.995 7.69934 16.8541C6.55847 15.7133 5.91754 14.1659 5.91754 12.5525Z" fill="white"/>
</svg>
