<?xml version="1.0" encoding="UTF-8"?>
<svg xmlns="http://www.w3.org/2000/svg" width="128" height="76" viewBox="0 0 128 76" fill="none">
  <g clip-path="url(#clip0_883_578)">
    <path d="M97.0381 0.000488281H56.7031V75.7811H97.0381C113.639 75.7811 127.146 62.2743 127.146 45.6708V30.1067C127.146 13.5039 113.639 0.000488281 97.0381 0.000488281ZM88.7292 55.0549H78.0836V14.6354C79.1427 14.1678 80.3148 13.9066 81.5478 13.9066C85.1094 13.9066 88.1628 16.0741 89.4635 19.162C89.5691 19.4138 89.6638 19.6709 89.7457 19.9335C92.7355 20.1602 95.5161 21.1326 97.9023 22.6668C100.812 24.5373 103.133 27.2415 104.529 30.4431C105.469 32.5944 105.99 34.971 105.99 37.4682C105.99 39.9653 105.469 42.3433 104.529 44.4946C102.89 48.2498 99.9785 51.3221 96.3384 53.1648C96.3208 53.1743 96.3032 53.1831 96.2856 53.1919C94.005 54.3376 91.4422 55.0008 88.7286 55.0502V55.0549H88.7292Z" fill="white" fill-opacity="0.6"></path>
    <path d="M35.1215 55.0405C32.6967 54.9505 30.4182 54.2907 28.4151 53.1924C28.162 53.0543 27.9136 52.9082 27.67 52.7552C25.8591 51.6258 24.3047 50.1228 23.1129 48.3558C21.4834 45.9379 20.5305 43.0253 20.5305 39.89C20.5305 37.0877 21.2905 34.464 22.6155 32.2112C25.2507 27.7305 30.1225 24.7238 35.6967 24.7238C37.9393 24.7238 40.0649 25.2151 41.9794 26.0875C41.9977 24.9018 42.1195 23.7419 42.3347 22.6158C42.5641 21.4241 42.8991 20.2696 43.3308 19.1632C44.7851 15.4256 47.335 12.2342 50.5853 9.98473L50.5705 0.000976588H30.1089C13.5061 0.000299861 0 13.5064 0 30.1079V45.6719C0 62.2734 13.5061 75.7802 30.1083 75.7802H51.2688V55.0561H35.1167L35.1215 55.0412V55.0405Z" fill="white" fill-opacity="0.6"></path>
  </g>
  <defs>
    <clipPath id="clip0_883_578">
      <rect width="127.147" height="75.7812" fill="white"></rect>
    </clipPath>
  </defs>
</svg>
