<svg width="1440" height="1313" viewBox="0 0 1440 1313" fill="none" xmlns="http://www.w3.org/2000/svg">
<g opacity="0.2">
<mask id="mask0_138_4071" style="mask-type:luminance" maskUnits="userSpaceOnUse" x="0" y="0" width="1440" height="1313">
<path d="M1440 0H0V1313H1440V0Z" fill="white"/>
</mask>
<g mask="url(#mask0_138_4071)">
<path d="M1427.85 1237.86C1427.59 1237.49 1400.89 1200.36 1347.63 1160.28C1298.47 1123.3 1215.98 1076.18 1102.17 1061.76C977.047 1045.89 880.999 1098.16 788.131 1148.73C718.159 1186.82 645.799 1226.19 562.844 1234.3C422.768 1247.97 308.432 1207.93 224.936 1178.66C194.144 1167.88 167.54 1158.56 145.556 1154.03C68.3836 1138.14 -14.0084 1167.7 -14.8364 1168L-15.1484 1166.4C-14.3204 1166.11 68.2996 1136.47 145.724 1152.4C167.78 1156.95 194.396 1166.27 225.224 1177.07C308.636 1206.3 422.876 1246.32 562.747 1232.66C645.523 1224.57 717.788 1185.25 787.676 1147.2C880.688 1096.57 976.844 1044.23 1102.28 1060.13C1216.32 1074.59 1298.98 1121.81 1348.26 1158.89C1401.66 1199.08 1428.45 1236.35 1428.72 1236.72L1427.85 1237.86Z" fill="url(#paint0_linear_138_4071)"/>
<path d="M1430.84 1272.25C1426.15 1266.34 1313.62 1127.06 1102.99 1102.39C1069.15 1098.6 1035.47 1099.74 1002.91 1105.74C932.106 1118.82 867.138 1150.29 804.318 1180.7C728.022 1217.64 649.122 1255.85 561.882 1258.87C533.538 1259.84 504.246 1258.12 472.338 1253.55C388.398 1241.59 313.482 1215.67 253.302 1194.86C212.454 1180.73 177.174 1168.54 147.966 1163.45C75.6897 1150.86 -3.73831 1176.37 -12.0783 1181.45L-12.5703 1179.96C-4.18231 1174.84 75.5937 1149.19 148.11 1161.82C177.39 1166.93 212.706 1179.14 253.59 1193.29C313.746 1214.1 388.602 1239.98 472.458 1251.95C504.318 1256.49 533.562 1258.22 561.846 1257.25C648.894 1254.24 724.194 1217.77 803.91 1179.17C866.802 1148.73 931.83 1117.23 1002.74 1104.13C1035.39 1098.09 1069.15 1096.98 1103.08 1100.77C1314.13 1125.49 1426.95 1265.12 1431.64 1271.07L1430.83 1272.26L1430.84 1272.25Z" fill="url(#paint1_linear_138_4071)"/>
<path d="M1433.81 1306.58C1432.69 1305.17 1312.52 1164.3 1103.81 1143C1069.99 1139.55 1036.34 1141.36 1003.77 1148.4C942.274 1161.68 882.826 1187.33 825.346 1212.13C743.95 1247.25 659.866 1283.54 570.658 1283.54C567.418 1283.54 564.178 1283.49 560.914 1283.39C533.614 1282.57 504.742 1278.52 472.654 1270.98C406.87 1255.54 346.078 1233.97 292.45 1214.94C237.382 1195.39 189.838 1178.52 150.358 1172.8C76.4859 1162.12 1.14994 1188.45 -9.42206 1194.9L-9.91406 1193.4C0.705938 1186.92 76.3779 1160.45 150.478 1171.18C190.042 1176.91 237.634 1193.8 292.738 1213.36C346.342 1232.38 407.11 1253.95 472.834 1269.38C504.862 1276.89 533.674 1280.95 560.926 1281.77C653.566 1284.57 740.698 1246.94 824.962 1210.59C882.49 1185.77 941.962 1160.1 1003.56 1146.79C1036.22 1139.73 1069.97 1137.91 1103.87 1141.37C1312.98 1162.73 1433.47 1303.97 1434.59 1305.38L1433.77 1306.58H1433.81Z" fill="url(#paint2_linear_138_4071)"/>
<path d="M1436.78 1340.92C1432.56 1335.58 1398.78 1300.84 1340.23 1264.53C1288.77 1232.61 1206.14 1192.66 1104.63 1183.62C1070.45 1180.57 1036.81 1183.08 1004.65 1191.07C953.902 1203.68 902.554 1223.58 852.898 1242.84C758.146 1279.57 660.177 1317.55 559.977 1307.94C532.605 1305.32 504.969 1299.12 472.989 1288.43C429.537 1273.91 388.257 1258.05 348.333 1242.71C272.697 1213.66 207.381 1188.56 152.793 1182.19C84.0094 1174.17 10.8094 1197.67 -6.73456 1208.37L-7.22656 1206.88C10.9894 1195.77 82.9294 1172.39 152.889 1180.57C207.585 1186.95 272.961 1212.06 348.657 1241.15C388.569 1256.48 429.849 1272.33 473.277 1286.85C505.185 1297.52 532.761 1303.71 560.061 1306.32C660.057 1315.92 757.929 1277.98 852.573 1241.28C902.253 1222.01 953.637 1202.1 1004.43 1189.46C1036.68 1181.45 1070.42 1178.94 1104.71 1182C1206.39 1191.06 1289.17 1231.09 1340.72 1263.06C1399.41 1299.46 1433.34 1334.37 1437.59 1339.74L1436.77 1340.93L1436.78 1340.92Z" fill="url(#paint3_linear_138_4071)"/>
<path d="M1439.75 1375.25C1433.45 1367.31 1396.1 1333.17 1337.73 1299.35C1285.62 1269.15 1203.01 1231.59 1105.45 1224.21C1070.75 1221.58 1037.12 1224.78 1005.51 1233.71C967.641 1244.41 929.709 1257.89 889.557 1272.15C781.197 1310.65 669.153 1350.45 559.017 1332.45C531.813 1328 503.781 1319.3 473.313 1305.83C458.997 1299.51 444.789 1293.14 430.713 1286.86C329.133 1241.43 233.181 1198.52 155.205 1191.55C87.6332 1185.49 18.1292 1208.27 -4.05878 1221.81L-4.55078 1220.32C22.2452 1203.97 92.6972 1184.31 155.277 1189.91C233.397 1196.91 329.421 1239.83 431.085 1285.3C445.161 1291.58 459.369 1297.95 473.673 1304.27C504.069 1317.69 532.029 1326.39 559.149 1330.82C669.069 1348.78 781.005 1309.01 889.257 1270.56C929.421 1256.28 967.365 1242.8 1005.27 1232.1C1036.98 1223.14 1070.71 1219.93 1105.51 1222.57C1203.25 1229.97 1285.99 1267.57 1338.19 1297.84C1396.7 1331.74 1434.2 1366.05 1440.54 1374.04L1439.72 1375.24L1439.75 1375.25Z" fill="url(#paint4_linear_138_4071)"/>
<path d="M1442.71 1409.59C1434.61 1399.36 1393.52 1365.7 1335.24 1334.22C1282.51 1305.75 1200 1270.59 1106.28 1264.81C1070.94 1262.65 1037.34 1266.52 1006.39 1276.37C984.933 1283.2 963.189 1290.58 940.161 1298.39C819.357 1339.41 682.437 1385.91 558.069 1356.99C530.277 1350.52 502.665 1339.49 473.637 1323.26C366.501 1263.32 254.073 1207.01 157.629 1200.92C97.1727 1197.11 30.5847 1215.77 -1.37128 1235.27L-1.86328 1233.78C30.2127 1214.2 97.0407 1195.45 157.689 1199.28C254.325 1205.37 366.873 1261.73 474.105 1321.73C503.037 1337.93 530.577 1348.93 558.273 1355.36C682.401 1384.21 819.189 1337.77 939.885 1296.8C962.913 1288.99 984.669 1281.6 1006.14 1274.76C1037.18 1264.88 1070.9 1260.97 1106.35 1263.17C1200.24 1268.97 1282.89 1304.17 1335.7 1332.7C1394.13 1364.24 1435.39 1398.08 1443.55 1408.37L1442.73 1409.57L1442.71 1409.59Z" fill="url(#paint5_linear_138_4071)"/>
<path d="M1445.68 1443.92C1437.39 1433.45 1395.75 1400.77 1332.75 1369.16C1279.48 1342.43 1197.09 1309.67 1107.1 1305.45C1071.02 1303.76 1037.43 1308.32 1007.28 1319.06C915.765 1351.59 788.672 1396.75 667.904 1396.75C629.912 1396.75 592.557 1392.29 557.121 1381.54C528.897 1372.99 500.913 1359.23 473.973 1340.7C352.917 1257.39 247.305 1213.52 160.053 1210.32C97.6405 1208.04 35.3605 1227.98 1.3045 1248.76L0.8125 1247.27C34.9885 1226.41 97.4965 1206.4 160.077 1208.68C247.509 1211.88 353.289 1255.8 474.501 1339.23C501.357 1357.71 529.232 1371.41 557.372 1379.93C705.153 1424.72 886.785 1360.17 1006.96 1317.45C1037.23 1306.7 1070.92 1302.1 1107.14 1303.79C1197.28 1308.03 1279.81 1340.84 1333.16 1367.6C1396.32 1399.3 1438.14 1432.15 1446.49 1442.71L1445.67 1443.91L1445.68 1443.92Z" fill="url(#paint6_linear_138_4071)"/>
<path d="M1448.65 1478.27C1439 1466.1 1394.71 1434.12 1330.26 1404.16C1276.51 1379.16 1194.3 1348.8 1107.93 1346.07C1070.97 1344.91 1037.41 1350.17 1008.15 1361.71C932.24 1391.67 856.16 1412.72 788.156 1422.6C698.228 1435.67 620.18 1430.1 556.172 1406.06C526.976 1395.1 499.424 1378.96 474.308 1358.1C399.044 1295.62 283.844 1220.88 162.476 1219.7C108.56 1219.17 47.852 1235.47 3.992 1262.22L3.5 1260.73C47.504 1233.88 108.428 1217.5 162.476 1218.05C284.12 1219.25 399.524 1294.11 474.92 1356.71C499.952 1377.48 527.384 1393.55 556.484 1404.48C620.348 1428.46 698.252 1434.01 788.024 1420.98C855.956 1411.11 931.964 1390.07 1007.82 1360.14C1037.19 1348.55 1070.89 1343.26 1107.96 1344.43C1194.48 1347.15 1276.81 1377.57 1330.64 1402.6C1395.97 1432.98 1439.46 1464.44 1449.46 1477.08L1448.65 1478.27Z" fill="url(#paint7_linear_138_4071)"/>
<path d="M1451.62 1512.61C1426.73 1481.2 1258.14 1388.92 1108.76 1386.68C1070.85 1386.12 1037.27 1392.06 1009.02 1404.37C942.076 1433.55 863.968 1453.61 789.064 1460.84C699.34 1469.51 618.472 1459.04 555.22 1430.6C524.968 1416.99 497.86 1398.46 474.628 1375.52C378.832 1280.9 270.892 1229.02 170.068 1229.02C168.34 1229.02 166.612 1229.02 164.884 1229.07C110.536 1230.04 54.3519 1246.58 6.66387 1275.68L6.17188 1274.18C54.0039 1245 110.368 1228.39 164.872 1227.43C267.424 1225.64 377.68 1277.73 475.336 1374.19C498.46 1397.03 525.46 1415.48 555.592 1429.04C689.2 1489.12 879.412 1459.15 1008.66 1402.81C1037.03 1390.43 1070.7 1384.44 1108.77 1385.03C1258.44 1387.3 1427.46 1479.88 1452.44 1511.41L1451.62 1512.61Z" fill="url(#paint8_linear_138_4071)"/>
<path d="M1454.59 1546.94C1437.21 1525 1359.88 1483.03 1272.49 1455.53C1209.27 1435.63 1091.1 1408.08 1009.9 1447.02C934.796 1483.05 829.712 1503.07 735.632 1499.28C682.16 1497.11 633.404 1487.78 590.732 1471.51C543.14 1453.38 504.188 1426.94 474.968 1392.91C411.2 1318.69 336.8 1268.73 259.796 1248.45C218.876 1237.67 177.404 1235.32 136.532 1241.46C93.3436 1247.96 50.5516 1263.99 9.34356 1289.14L8.85156 1287.64C50.1796 1262.43 93.0916 1246.33 136.4 1239.83C177.392 1233.68 218.984 1236.02 260.012 1246.84C337.22 1267.18 411.812 1317.27 475.736 1391.66C504.824 1425.52 543.62 1451.85 591.044 1469.92C633.632 1486.15 682.292 1495.47 735.668 1497.62C829.592 1501.42 934.532 1481.42 1009.51 1445.46C1090.99 1406.39 1209.42 1433.99 1272.76 1453.92C1360.35 1481.47 1437.92 1523.64 1455.42 1545.73L1454.6 1546.93L1454.59 1546.94Z" fill="url(#paint9_linear_138_4071)"/>
<path d="M1435.48 1492.85C1271.45 1285.76 968.478 1421.75 780.93 1433.7C489.882 1452.25 280.41 1057.44 -10.4219 1234.89V1563.34H1435.48V1492.83V1492.85Z" fill="url(#paint10_linear_138_4071)"/>
<path d="M1440.56 1432.55C1429.62 1424.61 1418.3 1417.63 1406.74 1411.53C1394.36 1404.98 1381.71 1399.41 1368.91 1394.64C1354.82 1389.39 1340.54 1385.09 1326.18 1381.51C1310.26 1377.55 1294.23 1374.47 1278.16 1372.02C1260.27 1369.31 1242.33 1367.38 1224.36 1366.01C1204.34 1364.49 1184.3 1363.65 1164.25 1363.31C1141.94 1362.91 1119.63 1363.11 1097.34 1363.72C1072.58 1364.39 1047.84 1365.55 1023.1 1367.06C995.732 1368.74 968.384 1370.82 941.036 1373.19C910.892 1375.8 880.76 1378.73 850.628 1381.89C822.872 1384.79 795.044 1386.63 767.204 1386.74C744.176 1386.84 721.136 1385.79 698.18 1383.1C679.46 1380.9 660.8 1377.62 642.344 1372.79C627.308 1368.85 612.404 1363.88 597.836 1357.46C586.268 1352.38 574.892 1346.35 563.948 1339.11C555.248 1333.35 546.8 1326.8 538.856 1319.27C532.748 1313.48 526.916 1307.09 521.576 1300C517.568 1294.69 513.836 1288.97 510.536 1282.82C508.304 1278.67 506.264 1274.32 504.548 1269.74C503.66 1267.36 502.82 1264.91 502.196 1262.39C502.112 1262.07 502.04 1261.75 501.98 1261.43C503 1263.49 504.164 1265.42 505.34 1267.31C508.652 1272.63 512.288 1277.53 516.104 1282.18C522.104 1289.48 528.572 1296.05 535.328 1301.97C544.484 1310.01 554.18 1316.89 564.188 1322.72C576.86 1330.1 590.036 1335.83 603.44 1340.18C620.24 1345.63 637.4 1348.91 654.632 1350.5C675.8 1352.47 697.076 1351.92 718.208 1349.55C744.38 1346.61 770.36 1340.87 796.004 1333.22C827.204 1323.92 857.936 1311.75 888.152 1297.69C919.484 1283.1 950.324 1266.52 980.504 1247.91C1007.92 1231 1034.8 1212.48 1061.1 1192.47C1086.12 1173.43 1110.6 1153.06 1134.51 1131.51C1157.11 1111.14 1179.19 1089.71 1200.73 1067.31C1220.61 1046.64 1240.04 1025.14 1259 1002.9C1276.34 982.553 1293.28 961.577 1309.82 940.011C1324.34 921.071 1338.54 901.672 1352.38 881.829C1364.18 864.924 1375.74 847.691 1387 830.13C1395.91 816.261 1404.63 802.196 1413.14 787.884C1419.12 777.839 1424.98 767.696 1430.71 757.389C1433.7 752.006 1436.66 746.59 1439.53 741.075C1439.88 740.402 1440.22 739.73 1440.57 739.057L1440.55 1432.55H1440.56Z" fill="url(#paint11_linear_138_4071)"/>
<path d="M-10.4219 969.586C159.21 942.259 330.27 1017.76 469.638 1146.82C625.734 1291.37 802.206 1301.96 951.69 1132C877.278 1305.73 640.158 1346.27 520.146 1254.49C457.074 1206.25 407.478 1130.3 345.174 1079.83C237.654 992.728 112.374 974.871 -10.4219 985.736V969.602V969.586Z" fill="url(#paint12_linear_138_4071)"/>
<path d="M-2.76562 150.913C159.198 59.0192 352.086 39.0287 522.99 84.5242C729.246 139.44 928.53 257.003 1142.96 213.297C1237.43 194.045 1354.37 144.824 1442.74 222.865V-65.125H-2.76562V150.896V150.913Z" fill="url(#paint13_linear_138_4071)"/>
<path d="M995.529 222.619C969.369 235.7 940.965 243.857 912.381 249.092C881.793 254.689 850.593 256.938 819.525 256.265C790.197 255.625 760.773 252.44 732.189 245.531C696.573 236.931 661.761 225.179 627.273 212.755C592.713 200.314 558.405 187.135 523.581 175.466C489.057 163.879 453.993 154.097 418.377 146.711C382.773 139.342 346.689 134.287 310.437 131.924C274.305 129.56 237.993 129.839 201.933 133.171C166.557 136.421 131.277 142.477 96.9814 152.029C65.4574 160.81 34.4254 173.086 7.37738 192.125C0.837377 196.72 -5.45062 201.709 -11.3906 207.093C30.0934 199.789 72.2014 196.26 114.285 196.326C156.393 196.408 198.417 200.167 239.925 207.388C280.605 214.462 321.225 223.161 360.033 237.768C394.425 250.701 427.029 268 459.117 285.988C491.157 303.943 522.813 322.702 555.777 338.869C587.997 354.674 621.633 367.984 656.805 374.993C688.737 381.344 721.605 382.624 753.957 379.391C786.453 376.141 818.553 368.346 848.949 356.118C879.141 343.973 907.725 327.413 932.913 306.47C944.805 296.574 955.473 285.561 966.009 274.203C975.765 263.667 986.277 252.736 992.529 239.524C994.965 234.387 996.861 228.363 995.529 222.619Z" fill="url(#paint14_linear_138_4071)"/>
<path d="M1529.06 583.876C1392.31 540.284 1261.91 454.086 1151.96 334.619C1136.79 318.141 1121.75 300.744 1107.2 283.921C1079.22 251.572 1050.27 218.107 1019.33 189.828C964.377 139.622 911.277 114.692 861.501 115.644C832.869 116.202 804.429 125.442 776.913 134.37C764.661 138.342 752.001 142.462 739.461 145.761C667.917 164.602 591.957 157.725 519.813 125.885C447.669 94.045 383.109 38.8989 333.105 -33.5951L333.981 -34.7275C383.841 37.5695 448.233 92.5514 520.185 124.326C592.137 156.084 667.881 162.945 739.233 144.152C751.737 140.853 764.397 136.75 776.637 132.778C804.213 123.834 832.725 114.577 861.489 114.003C911.529 113.051 964.833 138.063 1019.99 188.466C1050.99 216.794 1079.96 250.276 1107.97 282.657C1122.51 299.48 1137.56 316.861 1152.71 333.323C1262.52 452.642 1392.75 538.725 1529.34 582.268L1529.06 583.86V583.876Z" fill="url(#paint15_linear_138_4071)"/>
<path d="M1529.41 558.091C1392.45 511.759 1262.11 427.677 1152.45 314.94C1137.27 299.332 1122.19 282.854 1107.6 266.933C1090.08 247.813 1071.96 228.036 1053.59 209.637C1041.2 197.246 1029.79 186.545 1018.69 176.927C963.489 129.101 910.437 105.205 860.949 105.878C832.653 106.271 804.513 114.724 777.309 122.897C764.877 126.639 752.025 130.496 739.317 133.549C671.205 149.863 599.097 143.167 530.781 114.199C494.493 98.8202 458.985 77.0408 425.229 49.5007C391.581 22.0261 360.981 -9.89619 334.281 -45.3964L335.121 -46.5781C361.749 -11.16 392.277 20.6967 425.853 48.0892C459.513 75.5637 494.937 97.2939 531.141 112.64C599.265 141.526 671.181 148.205 739.113 131.941C751.797 128.904 764.637 125.047 777.057 121.305C804.321 113.116 832.521 104.647 860.937 104.253C910.689 103.563 963.933 127.558 1019.34 175.549C1030.46 185.183 1041.9 195.9 1054.31 208.324C1072.7 226.739 1090.82 246.533 1108.35 265.67C1122.93 281.59 1138.02 298.052 1153.19 313.643C1262.71 426.25 1392.91 510.232 1529.71 556.516L1529.42 558.108L1529.41 558.091Z" fill="url(#paint16_linear_138_4071)"/>
<path d="M1529.76 532.308C1392.26 483.054 1261.97 401.073 1152.96 295.245C1137.79 280.507 1122.68 264.981 1108.08 249.963C1090.26 231.647 1071.83 212.691 1053.18 195.08C1040.72 183.312 1029.24 173.153 1018.06 163.978C962.617 118.532 909.577 95.653 860.389 96.0633C832.453 96.2767 804.661 103.958 777.781 111.393C765.145 114.888 752.077 118.499 739.165 121.289C671.065 135.962 599.401 128.018 531.937 98.2954C496.897 82.8677 461.605 60.957 427.045 33.1542C393.985 6.54957 362.317 -24.7162 335.461 -57.2622L336.253 -58.4932C363.049 -26.0128 394.645 5.18733 427.645 31.7428C462.121 59.4799 497.329 81.3578 532.297 96.7363C599.593 126.377 671.053 134.304 738.973 119.665C751.861 116.891 764.905 113.28 777.529 109.784C804.469 102.349 832.321 94.6519 860.365 94.4221C909.817 93.9954 963.025 116.956 1018.66 162.567C1029.86 171.741 1041.37 181.934 1053.85 193.718C1072.51 211.345 1090.96 230.301 1108.79 248.65C1123.38 263.651 1138.48 279.178 1153.63 293.9C1262.53 399.613 1392.7 481.495 1530.05 530.716L1529.75 532.308H1529.76Z" fill="url(#paint17_linear_138_4071)"/>
<path d="M1530.09 506.524C1391.59 454.103 1261.34 374.223 1153.44 275.568C1138.3 261.699 1123.22 247.141 1108.64 233.043C1090.48 215.514 1071.72 197.378 1052.77 180.539C1040.22 169.395 1028.66 159.745 1017.42 151.062C961.737 107.996 908.733 86.2493 859.821 86.2822C832.269 86.3314 804.849 93.241 778.317 99.9209C765.453 103.171 752.145 106.519 739.005 109.046C670.917 122.078 599.697 112.87 533.073 82.4088C499.425 67.0467 464.349 44.9719 428.841 16.8244C396.105 -9.14015 364.221 -38.8468 336.633 -69.1114L337.389 -70.3916C364.929 -40.1926 396.765 -10.5188 429.453 15.3966C464.889 43.4948 499.893 65.5203 533.457 80.8496C599.913 111.213 670.929 120.404 738.837 107.405C751.953 104.894 765.249 101.529 778.101 98.2961C804.681 91.5998 832.149 84.6737 859.809 84.6245H860.133C909.141 84.6245 962.253 106.486 1018 149.618C1029.27 158.317 1040.85 167.984 1053.42 179.144C1072.39 196 1091.17 214.152 1109.32 231.68C1123.9 245.762 1138.98 260.32 1154.1 274.172C1261.89 372.746 1392.02 452.527 1530.4 504.916L1530.08 506.491L1530.09 506.524Z" fill="url(#paint18_linear_138_4071)"/>
<path d="M1530.44 480.74C1388.22 423.969 1261.54 348.307 1153.93 255.872C1138.87 242.906 1123.84 229.3 1109.3 216.154C1090.79 199.397 1071.65 182.065 1052.35 165.997C1039.72 155.477 1028.08 146.368 1016.77 138.145C960.84 97.4421 907.848 76.7131 859.248 76.5161C858.996 76.5161 858.744 76.5161 858.492 76.5161C831.612 76.5161 804.852 82.6052 778.968 88.4973C765.828 91.4843 752.244 94.5863 738.84 96.8348C670.752 108.209 599.988 97.7375 534.216 66.5701C501.696 51.1752 467.82 29.5764 430.644 0.542664C398.712 -24.4043 366.612 -52.5682 337.812 -80.8962L338.508 -82.2256C367.284 -53.914 399.348 -25.7994 431.244 -0.868813C468.36 28.1321 502.164 49.6817 534.612 65.0438C600.216 96.1291 670.788 106.567 738.696 95.2428C752.076 92.9943 765.648 89.9087 778.764 86.9217C804.948 80.9639 831.996 74.7764 859.248 74.9241C908.04 75.121 961.236 95.9321 1017.34 136.75C1028.66 144.989 1040.33 154.114 1052.98 164.651C1072.28 180.752 1091.44 198.083 1109.96 214.841C1124.5 227.987 1139.52 241.593 1154.57 254.543C1262.08 346.896 1388.65 422.492 1530.77 479.213L1530.43 480.789L1530.44 480.74Z" fill="url(#paint19_linear_138_4071)"/>
<path d="M1530.79 454.955C1385.68 393.983 1259.06 320.373 1154.43 236.193C1139.49 224.13 1124.56 211.525 1110.12 199.314C1091.19 183.312 1071.62 166.785 1051.95 151.455C1039.23 141.559 1027.52 132.975 1016.14 125.228C959.972 86.9049 907.004 67.2263 858.692 66.7339C831.992 66.4385 805.448 71.8546 779.744 77.0738C766.304 79.7983 752.396 82.6212 738.692 84.5907C670.604 94.2741 600.296 82.5556 535.364 50.6825C504.296 35.4517 471.596 14.3288 432.452 -15.7881C402.8 -38.6015 371.36 -64.5004 338.996 -92.7464L339.644 -94.125C371.996 -65.8955 403.412 -40.013 433.052 -17.216C472.136 12.8681 504.776 33.9417 535.784 49.1397C600.536 80.9307 670.664 92.6328 738.584 82.9659C752.264 80.9964 766.148 78.1898 779.576 75.4489C805.328 70.2134 831.968 64.7972 858.716 65.0927C907.208 65.585 960.368 85.3293 1016.7 123.767C1028.1 131.53 1039.83 140.131 1052.56 150.044C1072.26 165.389 1091.84 181.933 1110.76 197.935C1125.2 210.13 1140.13 222.751 1155.06 234.798C1259.6 318.912 1386.14 392.473 1531.16 453.412L1530.81 454.988L1530.79 454.955Z" fill="url(#paint20_linear_138_4071)"/>
<path d="M1531.12 429.188C1376.98 361.109 1257.44 293.539 1154.92 216.515C1140.18 205.404 1125.4 193.784 1111.12 182.558C1091.72 167.294 1071.67 151.522 1051.53 136.914C1038.74 127.641 1026.94 119.583 1015.5 112.296C958.304 75.8434 906.824 57.7241 858.116 56.9363C831.956 56.4931 805.868 61.1543 780.644 65.6677C766.844 68.1296 752.576 70.6735 738.524 72.3476C670.436 80.3569 600.572 67.3746 536.504 34.7958C499.28 15.905 463.928 -9.63282 434.24 -32.1179C415.292 -46.4789 396.548 -61.0039 378.428 -75.053C364.928 -85.5242 352.184 -95.4045 340.148 -104.596L340.736 -106.023C352.772 -96.8324 365.516 -86.9521 379.016 -76.481C397.136 -62.4319 415.868 -47.9068 434.816 -33.5623C464.456 -11.0935 499.772 14.4115 536.912 33.253C600.824 65.7334 670.496 78.6828 738.416 70.7063C752.444 69.0323 766.7 66.4883 780.488 64.0429C805.76 59.5294 831.896 54.8847 858.128 55.295C907.004 56.0828 958.652 74.2514 1016 110.802C1027.47 118.106 1039.28 126.164 1052.1 135.454C1072.24 150.077 1092.31 165.866 1111.72 181.13C1125.99 192.356 1140.75 203.959 1155.5 215.071C1257.96 292.029 1377.43 359.566 1531.5 427.613L1531.12 429.172V429.188Z" fill="url(#paint21_linear_138_4071)"/>
<path d="M1531.47 403.403C1413.37 348.668 1276.34 281.311 1155.42 196.835C1140.93 186.676 1126.41 176.09 1112.38 165.865C1092.43 151.324 1071.8 136.273 1051.14 122.372C1038.26 113.723 1026.4 106.206 1014.87 99.3781C957.44 65.3221 905.984 48.2531 857.564 47.1535C831.956 46.579 806.432 50.5016 781.724 54.3093C767.516 56.4922 752.828 58.7571 738.368 60.1194C670.28 66.4382 600.872 52.1921 537.644 18.9404C502.412 0.44352 468.128 -24.4871 436.04 -48.4329C400.652 -74.8242 369.104 -98.1628 341.336 -116.413L341.852 -117.891C369.644 -99.6235 401.216 -76.2685 436.616 -49.8608C468.668 -25.9478 502.904 -1.05003 538.076 17.414C601.136 50.5837 670.364 64.7969 738.284 58.4945C752.72 57.1323 767.396 54.8838 781.58 52.7009C806.324 48.8932 831.896 44.9542 857.576 45.5451C906.152 46.6283 957.764 63.7629 1015.34 97.9009C1026.9 104.729 1038.78 112.262 1051.66 120.928C1072.34 134.845 1092.98 149.896 1112.95 164.437C1126.98 174.662 1141.5 185.248 1155.97 195.391C1276.82 279.833 1413.8 347.158 1531.86 401.877L1531.47 403.436V403.403Z" fill="url(#paint22_linear_138_4071)"/>
<path d="M1531.81 377.619L1510.41 367.23C1391.04 309.31 1267.59 249.404 1155.91 177.14C1141.8 167.966 1127.64 158.446 1113.94 149.239C1093.33 135.37 1072.02 121.042 1050.72 107.814C1037.77 99.788 1025.83 92.7963 1014.22 86.4447C956.563 54.8013 905.131 38.7499 856.987 37.3713C832.039 36.6491 807.103 39.866 782.995 42.9844C768.319 44.8882 753.127 46.8413 738.199 47.8753C670.099 52.4708 601.147 36.9774 538.783 3.05273C505.603 -14.9682 473.419 -38.6186 442.303 -61.4812L437.839 -64.7637C412.231 -83.556 374.503 -110.604 342.523 -128.264L342.967 -129.79C375.007 -112.097 412.783 -85.0331 438.403 -66.208L442.867 -62.9255C473.959 -40.0793 506.107 -16.4617 539.227 1.5264C601.435 35.369 670.219 50.8295 738.139 46.234C753.043 45.2 768.211 43.247 782.875 41.3431C807.019 38.2247 831.979 34.9915 856.999 35.7136C905.287 37.0923 956.863 53.1929 1014.66 84.9019C1026.28 91.2699 1038.24 98.2617 1051.21 106.304C1072.52 119.532 1093.84 133.877 1114.47 147.745C1128.16 156.953 1142.31 166.472 1156.41 175.63C1268.04 247.862 1391.46 307.751 1510.81 365.654L1532.2 376.043L1531.81 377.586V377.619Z" fill="url(#paint23_linear_138_4071)"/>
<path d="M1532.15 351.836C1495.78 333.339 1458.44 314.957 1422.32 297.182C1333.31 253.377 1241.29 208.079 1156.41 157.463C1142.83 149.322 1129.17 140.886 1115.96 132.745C1094.55 119.533 1072.4 105.862 1050.32 93.2897C1037.3 85.8876 1025.29 79.4211 1013.59 73.529C955.699 44.2819 904.291 29.2645 856.423 27.5904C832.183 26.737 807.955 29.2645 784.531 31.7264C769.291 33.3184 753.535 34.976 738.043 35.649C669.943 38.5376 601.435 21.764 539.935 -12.8172C511.099 -28.9999 482.971 -49.5155 455.767 -69.3582C450.391 -73.2808 445.027 -77.187 439.651 -81.0767C400.471 -109.388 369.091 -128.689 343.711 -140.096L344.083 -141.655C369.523 -130.216 400.963 -110.882 440.203 -82.521C445.579 -78.6313 450.955 -74.7251 456.331 -70.8025C483.511 -50.9762 511.615 -30.4934 540.391 -14.3435C601.735 20.1555 670.075 36.8635 738.007 33.9913C753.463 33.3184 769.207 31.6772 784.435 30.0687C807.895 27.6068 832.147 25.0793 856.447 25.9328C904.447 27.6068 955.987 42.6735 1013.99 71.9698C1025.71 77.8619 1037.73 84.3284 1050.77 91.7469C1072.88 104.335 1095.03 118.007 1116.45 131.219C1129.65 139.36 1143.31 147.796 1156.89 155.936C1241.74 206.536 1333.75 251.818 1422.73 295.623C1458.85 313.398 1496.19 331.78 1532.57 350.277L1532.15 351.819V351.836Z" fill="url(#paint24_linear_138_4071)"/>
<path d="M1532.51 326.052C1473.68 294.786 1412.82 265.391 1353.96 236.965C1288.37 205.289 1220.54 172.529 1156.91 137.768C1144.03 130.694 1131.08 123.407 1118.55 116.349C1096.15 103.744 1072.98 90.6965 1049.91 78.7318C1036.81 71.9534 1024.71 66.0121 1012.95 60.596C954.851 33.7615 903.467 19.7617 855.851 17.8086C832.439 16.8403 809.015 18.7113 786.371 20.5331C770.471 21.8132 754.019 23.1263 737.879 23.4217C668.795 24.587 602.579 7.04201 541.067 -28.688C515.675 -43.41 490.787 -61.5622 466.727 -79.1072C458.447 -85.147 449.891 -91.3838 441.443 -97.3907C403.175 -124.603 370.691 -142.952 344.891 -151.929L345.191 -153.521C371.075 -144.495 403.643 -126.096 441.995 -98.835C450.443 -92.8281 459.011 -86.5913 467.291 -80.5515C491.339 -63.023 516.191 -44.8871 541.535 -30.198C602.891 5.43358 668.951 22.9457 737.855 21.7804C753.971 21.485 770.399 20.172 786.287 18.9082C808.967 17.0865 832.415 15.2154 855.875 16.1838C903.611 18.1533 955.103 32.1695 1013.33 59.0696C1025.1 64.4857 1037.21 70.4271 1050.32 77.2218C1073.4 89.1865 1096.57 102.234 1118.99 114.856C1131.51 121.913 1144.46 129.2 1157.34 136.274C1220.94 171.036 1288.76 203.779 1354.34 235.455C1413.21 263.881 1474.09 293.276 1532.93 324.558L1532.49 326.085L1532.51 326.052Z" fill="url(#paint25_linear_138_4071)"/>
<path d="M1532.84 300.268C1456.16 257.694 1376.11 220.733 1298.69 184.97C1251.87 163.355 1203.47 141.001 1157.41 118.073C1145.57 112.148 1133.63 106.059 1122.08 100.183C1098.38 88.1033 1073.87 75.597 1049.52 64.1904C1036.35 58.0357 1024.19 52.6195 1012.33 47.6794C954.034 23.2412 902.662 10.2753 855.298 8.02676C832.846 6.95995 810.358 8.20729 788.614 9.40541C771.922 10.3409 754.654 11.3093 737.722 11.1616C668.626 10.5379 602.854 -8.22162 542.218 -44.5753C519.61 -58.0992 497.386 -74.3968 475.882 -90.1528C465.214 -97.9652 454.186 -106.057 443.242 -113.705C405.106 -140.359 372.418 -157.214 346.078 -163.779L346.294 -165.388C372.742 -158.79 405.55 -141.901 443.782 -115.165C454.726 -107.517 465.766 -99.4259 476.434 -91.5971C497.914 -75.8575 520.114 -59.5763 542.686 -46.0688C603.178 -9.7972 668.794 8.91304 737.722 9.53671C754.618 9.66801 771.874 8.69969 788.554 7.78058C810.322 6.56606 832.834 5.3187 855.322 6.40192C902.794 8.66684 954.262 21.6491 1012.67 46.1202C1024.53 51.0768 1036.71 56.4765 1049.89 62.6476C1074.25 74.0707 1098.78 86.577 1122.49 98.6566C1134.03 104.549 1145.97 110.621 1157.81 116.546C1203.86 139.458 1252.26 161.812 1299.06 183.427C1376.49 219.19 1456.57 256.167 1533.29 298.758L1532.83 300.284L1532.84 300.268Z" fill="url(#paint26_linear_138_4071)"/>
<path d="M1533.19 274.483C1441.98 221.652 1345.77 180.095 1252.73 139.884C1221.43 126.361 1189.07 112.377 1157.9 98.3773C1147.55 93.6997 1137.24 88.9729 1126.97 84.2789C1101.51 72.626 1075.2 60.5793 1049.11 49.6322C1035.87 44.0847 1023.63 39.2266 1011.69 34.746C953.205 12.7204 901.857 0.77211 854.733 -1.77184C833.421 -2.9207 812.049 -2.26419 791.373 -1.6077C773.709 -1.04967 755.445 -0.47525 737.565 -1.0825C668.469 -3.49515 603.129 -23.4691 543.357 -60.4629C523.065 -73.0021 503.049 -87.8062 483.693 -102.134C471.081 -111.457 458.049 -121.107 445.053 -130.052C407.481 -155.869 373.665 -171.641 347.277 -175.662L347.409 -177.287C373.941 -173.25 407.889 -157.428 445.593 -131.513C458.613 -122.568 471.657 -112.917 484.269 -103.579C503.601 -89.2669 523.593 -74.4792 543.861 -61.9565C603.477 -25.0612 668.661 -5.1364 737.601 -2.72375C755.457 -2.1165 773.697 -2.69092 791.349 -3.24895C812.037 -3.90544 833.421 -4.57837 854.781 -3.41309C902.001 -0.869141 953.433 11.0956 1012.02 33.154C1023.97 37.6346 1036.22 42.5091 1049.47 48.0565C1075.57 59.0036 1101.9 71.0668 1127.36 82.7197C1137.63 87.4301 1147.93 92.1405 1158.29 96.8181C1189.44 110.818 1221.8 124.801 1253.09 138.309C1346.16 178.519 1442.4 220.092 1533.66 272.957L1533.19 274.467V274.483Z" fill="url(#paint27_linear_138_4071)"/>
<path d="M1533.54 248.7C1430.33 186.398 1320.18 142.806 1213.66 100.676C1195.48 93.4869 1176.68 86.052 1158.41 78.6992C1150.28 75.4167 1142.18 72.1178 1134.11 68.8354C1106.17 57.4615 1077.28 45.6937 1048.7 35.0912C1035.43 30.1839 1023.12 25.8346 1011.06 21.8135C952.417 2.20061 901.093 -8.71371 854.173 -11.5531C834.217 -12.7676 814.177 -12.6199 794.809 -12.4722C775.957 -12.3245 756.469 -12.1768 737.413 -13.3092C668.293 -17.5272 603.397 -38.7322 544.513 -76.3168C526.153 -88.0189 508.009 -101.608 490.465 -114.755C476.269 -125.39 461.593 -136.387 446.857 -146.333C420.625 -164.042 382.273 -185.558 348.469 -187.462L348.517 -189.104C382.525 -187.183 421.057 -165.584 447.385 -147.793C462.133 -137.831 476.833 -126.818 491.041 -116.183C508.573 -103.053 526.693 -89.4796 545.017 -77.7939C603.757 -40.2914 668.509 -19.1357 737.461 -14.9341C756.481 -13.8016 775.957 -13.9493 794.797 -14.097C814.189 -14.2447 834.229 -14.3924 854.221 -13.1779C901.225 -10.3386 952.621 0.592163 1011.35 20.2379C1023.42 24.259 1035.74 28.6083 1049.03 33.5156C1077.61 44.1181 1106.51 55.8859 1134.46 67.2762C1142.53 70.5587 1150.62 73.8576 1158.74 77.1401C1177.02 84.4764 1195.81 91.9113 1213.99 99.1164C1320.55 141.28 1430.74 184.872 1534.02 247.223L1533.54 248.716V248.7Z" fill="url(#paint28_linear_138_4071)"/>
<path d="M1533.87 222.914C1420.68 151.733 1298.28 108.388 1179.9 66.454C1172.88 63.9594 1165.87 61.481 1158.9 59.0027L1145.47 54.1939C1113.64 42.8036 1080.75 31.003 1048.3 20.5319C1035 16.2482 1022.61 12.4241 1010.43 8.87898C951.669 -8.32132 900.381 -18.218 853.605 -21.3528C835.317 -22.5838 816.945 -22.8792 799.173 -23.1582C778.833 -23.4701 757.785 -23.8147 737.253 -25.5709C668.121 -31.6107 603.669 -54.0301 545.661 -92.222C528.957 -103.202 512.409 -115.79 496.425 -127.952C480.921 -139.753 464.877 -151.947 448.677 -162.697C422.397 -180.144 383.889 -200.643 349.677 -199.379L349.641 -201.02C384.081 -202.333 422.793 -181.703 449.193 -164.174C465.429 -153.391 481.485 -141.197 497.001 -129.38C512.985 -117.235 529.509 -104.663 546.177 -93.6991C604.041 -55.6057 668.361 -33.2191 737.325 -27.2121C757.821 -25.456 778.845 -25.1277 799.173 -24.7995C816.957 -24.5205 835.353 -24.225 853.653 -22.9941C900.489 -19.8593 951.849 -9.96255 1010.67 7.27057C1022.86 10.8321 1035.26 14.6398 1048.57 18.9234C1081.03 29.411 1113.94 41.1952 1145.77 52.6019L1159.2 57.4107C1166.18 59.889 1173.18 62.3673 1180.2 64.862C1298.62 106.812 1421.07 150.191 1534.36 221.421L1533.86 222.914H1533.87Z" fill="url(#paint29_linear_138_4071)"/>
<path d="M1534.22 197.132C1412.81 117.696 1278.18 76.0573 1159.4 39.3097C1119.75 26.9675 1083.99 15.9383 1047.9 5.97594C1034.58 2.31595 1022.11 -0.966553 1009.79 -4.05211C950.986 -18.8398 899.71 -27.7025 853.03 -31.1327C836.854 -32.3308 820.582 -32.9545 804.826 -33.5454C782.554 -34.3988 759.514 -35.2687 737.086 -37.7962C667.942 -45.6578 603.922 -69.3082 546.79 -108.091C531.502 -118.447 516.358 -130.166 501.706 -141.49C485.098 -154.325 467.938 -167.603 450.454 -178.993C424.102 -196.177 385.426 -215.691 350.842 -211.211L350.734 -212.852C385.594 -217.382 424.486 -197.752 450.97 -180.486C468.49 -169.063 485.674 -155.786 502.294 -142.935C516.934 -131.61 532.066 -119.908 547.33 -109.568C604.33 -70.8838 668.206 -47.299 737.194 -39.4375C759.598 -36.9099 782.614 -36.0401 804.874 -35.1866C820.63 -34.5794 836.914 -33.9721 853.102 -32.774C899.83 -29.3438 951.154 -20.4646 1010.01 -5.66052C1022.34 -2.57497 1034.81 0.707535 1048.14 4.36752C1084.25 14.3299 1120.01 25.3591 1159.67 37.7013C1278.5 74.4489 1413.2 116.12 1534.74 195.639L1534.22 197.116V197.132Z" fill="url(#paint30_linear_138_4071)"/>
<path d="M1534.57 171.348C1417.6 91.7637 1285.34 52.7512 1159.91 19.6308C1129.15 11.4573 1088.59 0.854843 1047.5 -8.56593C1034.41 -11.553 1021.51 -14.3924 1009.16 -16.9691C950.495 -29.3277 899.243 -37.1565 852.479 -40.915C839.075 -41.9982 825.539 -42.786 812.459 -43.5738C787.607 -45.0509 761.903 -46.5609 736.943 -50.0403C667.799 -59.7565 604.211 -84.6379 547.955 -123.962C533.903 -133.777 519.959 -144.757 506.483 -155.376C488.975 -169.162 470.855 -183.425 452.279 -195.324C414.911 -219.237 379.319 -229.101 352.055 -223.094L351.863 -224.719C371.315 -229.002 404.615 -227.656 452.783 -196.817C471.407 -184.885 489.539 -170.623 507.071 -156.804C520.547 -146.201 534.467 -135.221 548.495 -125.439C604.619 -86.1971 668.063 -61.3814 737.063 -51.6816C761.987 -48.2021 787.667 -46.6922 812.507 -45.2151C825.599 -44.4437 839.135 -43.6394 852.551 -42.5562C899.351 -38.7977 950.639 -30.969 1009.36 -18.594C1021.7 -16.0008 1034.62 -13.1778 1047.71 -10.1743C1088.81 -0.753571 1129.38 9.84889 1160.14 18.0223C1285.66 51.1756 1417.99 90.2045 1535.11 169.887L1534.57 171.364V171.348Z" fill="url(#paint31_linear_138_4071)"/>
<path d="M1534.9 145.563C1414.94 60.7436 1278.68 25.9163 1160.4 -0.0647278C1119.76 -9.05878 1082.7 -16.5921 1047.09 -23.1243C1034.17 -25.4877 1021.2 -27.769 1008.52 -29.9191C950.421 -39.7994 899.193 -46.6106 851.913 -50.7137C842.289 -51.5507 832.557 -52.3057 823.149 -53.0443C794.697 -55.26 765.273 -57.5413 736.785 -62.2845C667.617 -73.8717 604.473 -99.9676 549.093 -139.85C536.133 -149.172 523.257 -159.512 510.801 -169.507C492.525 -184.18 473.625 -199.362 454.077 -211.638C416.577 -235.207 380.769 -243.479 353.241 -234.944L352.977 -236.552C380.757 -245.153 416.841 -236.831 454.581 -213.132C474.189 -200.822 493.113 -185.624 511.413 -170.919C523.857 -160.924 536.721 -150.6 549.657 -141.294C604.905 -101.494 667.917 -75.4638 736.929 -63.9094C765.381 -59.1662 794.781 -56.8848 823.221 -54.6691C832.629 -53.9306 842.373 -53.1756 851.997 -52.3385C899.313 -48.219 950.565 -41.4242 1008.68 -31.5275C1021.35 -29.3774 1034.34 -27.0961 1047.26 -24.7327C1082.88 -18.2169 1119.96 -10.6672 1160.6 -1.67317C1278.98 24.3406 1415.35 59.2008 1535.47 144.119L1534.92 145.58L1534.9 145.563Z" fill="url(#paint32_linear_138_4071)"/>
<path d="M1535.25 119.779C1419.26 34.631 1286.78 2.39682 1160.89 -19.76C1124.21 -26.2594 1085.78 -32.2828 1046.69 -37.6661C1034.17 -39.3894 1021.11 -41.1291 1007.89 -42.836C953.254 -49.9427 900.574 -55.8676 851.338 -60.4795C847.234 -60.857 843.142 -61.2509 839.05 -61.6284C805.246 -64.7467 770.302 -67.98 736.618 -74.5122C667.45 -87.9704 604.738 -115.297 550.234 -155.721C538.234 -164.617 526.294 -174.399 514.762 -183.852C495.85 -199.346 476.278 -215.381 455.878 -227.969C418.234 -251.176 382.21 -257.873 354.418 -246.827L354.082 -248.403C382.138 -259.547 418.462 -252.818 456.37 -229.463C476.842 -216.841 496.426 -200.79 515.374 -185.264C526.906 -175.81 538.822 -166.045 550.81 -157.166C605.182 -116.84 667.762 -89.5788 736.798 -76.1534C770.446 -69.6376 803.818 -66.5521 839.146 -63.286C843.238 -62.9085 847.33 -62.531 851.434 -62.1371C900.682 -57.5252 953.362 -51.5839 1008.01 -44.4937C1021.23 -42.7868 1034.29 -41.0471 1046.82 -39.3237C1085.93 -33.9404 1124.36 -27.9171 1161.06 -21.4013C1287.06 0.772003 1419.67 33.0389 1535.83 118.318L1535.27 119.763L1535.25 119.779Z" fill="url(#paint33_linear_138_4071)"/>
<path d="M1535.6 93.9951C1418.33 4.64542 1280.63 -23.6005 1161.39 -39.455C1126.73 -44.0997 1090.15 -48.1536 1046.29 -52.2239C1033.35 -53.422 1020.35 -54.6037 1007.27 -55.769L980.987 -58.1324C938.339 -61.9565 894.227 -65.9119 850.787 -70.2776C813.815 -74.0033 774.527 -78.3362 736.463 -86.7558C667.283 -102.118 605.015 -130.659 551.387 -171.592C540.239 -180.094 529.139 -189.383 518.411 -198.361C498.959 -214.642 478.847 -231.481 457.679 -244.267C419.891 -267.113 383.639 -272.233 355.607 -258.677L355.211 -260.22C383.531 -273.908 420.095 -268.77 458.171 -245.76C479.411 -232.926 499.559 -216.053 519.047 -199.756C529.763 -190.778 540.851 -181.505 551.975 -173.02C605.483 -132.169 667.619 -103.693 736.667 -88.3642C774.683 -79.9446 813.935 -75.6117 850.883 -71.9025C894.323 -67.5368 938.423 -63.5814 981.071 -59.7572L1007.35 -57.3938C1020.43 -56.2286 1033.44 -55.0469 1046.37 -53.8487C1090.25 -49.7784 1126.83 -45.7081 1161.51 -41.0798C1240.29 -30.6086 1299.86 -18.0531 1354.64 -0.376801C1424.15 22.0427 1483.52 52.455 1536.18 92.5672L1535.59 93.9951H1535.6Z" fill="url(#paint34_linear_138_4071)"/>
<path d="M1535.94 68.2105C1418.2 -24.832 1280.78 -48.3839 1161.89 -59.1505C1120.55 -62.909 1080.05 -65.1247 1045.88 -66.7823L1038.61 -67.127C1027.99 -67.6358 1017.32 -68.161 1006.63 -68.7026C956.832 -71.2301 903.408 -74.3485 850.224 -80.06C804.12 -85.0166 768.996 -90.8595 736.308 -99.0001C666.144 -116.512 606.036 -145.447 552.528 -187.48C542.148 -195.637 531.804 -204.483 521.796 -213.034C501.9 -230.054 481.32 -247.648 459.48 -260.598C408.276 -290.944 373.152 -279.866 356.784 -270.56L356.328 -272.07C372.876 -281.474 408.348 -292.684 459.96 -262.091C481.884 -249.092 502.5 -231.465 522.432 -214.413C532.428 -205.862 542.76 -197.032 553.128 -188.891C606.504 -146.957 666.492 -118.088 736.524 -100.608C769.164 -92.4679 804.264 -86.6415 850.32 -81.6849C903.492 -75.9733 956.892 -72.855 1006.68 -70.3275C1017.37 -69.7858 1028.04 -69.277 1038.66 -68.7518L1045.93 -68.4072C1080.11 -66.7495 1120.62 -64.5338 1161.98 -60.7754C1281.01 -49.9924 1418.6 -26.4076 1536.55 66.799L1535.95 68.2269L1535.94 68.2105Z" fill="url(#paint35_linear_138_4071)"/>
<path d="M1536.29 42.4101C1471.29 -10.832 1393.99 -45.4952 1299.93 -63.549C1218.23 -79.2393 1132.94 -80.9298 1045.47 -81.3565C954.106 -81.8161 871.882 -83.4245 790.846 -98.6389C696.538 -116.348 618.958 -150.601 553.654 -203.367C543.958 -211.212 534.286 -219.665 524.938 -227.838C504.67 -245.564 483.718 -263.896 461.266 -276.928C409.846 -306.799 374.458 -293.209 357.946 -282.459L357.43 -283.936C374.122 -294.818 409.882 -308.571 461.734 -278.438C484.282 -265.341 505.282 -246.975 525.586 -229.217C534.922 -221.043 544.582 -212.607 554.266 -204.779C619.426 -152.127 696.862 -117.94 791.002 -100.264C871.966 -85.0658 954.142 -83.4573 1045.47 -82.9978C1132.99 -82.571 1218.31 -80.8806 1300.1 -65.1738C1394.31 -47.0872 1471.76 -12.3584 1536.9 40.9987L1536.29 42.4101Z" fill="url(#paint36_linear_138_4071)"/>
</g>
</g>
<defs>
<linearGradient id="paint0_linear_138_4071" x1="-15.1604" y1="1147.55" x2="1428.7" y2="1147.55" gradientUnits="userSpaceOnUse">
<stop offset="0.06" stop-color="#F4F4F4"/>
<stop offset="1" stop-color="#D7EDFD" stop-opacity="0"/>
</linearGradient>
<linearGradient id="paint1_linear_138_4071" x1="-12.5703" y1="1185.39" x2="1431.65" y2="1185.39" gradientUnits="userSpaceOnUse">
<stop offset="0.06" stop-color="white"/>
<stop offset="1" stop-color="#D7EDFD" stop-opacity="0"/>
</linearGradient>
<linearGradient id="paint2_linear_138_4071" x1="-9.89006" y1="1223.11" x2="1434.62" y2="1223.11" gradientUnits="userSpaceOnUse">
<stop offset="0.06" stop-color="white"/>
<stop offset="1" stop-color="#D7EDFD" stop-opacity="0"/>
</linearGradient>
<linearGradient id="paint3_linear_138_4071" x1="-7.21456" y1="1259.89" x2="1437.59" y2="1259.89" gradientUnits="userSpaceOnUse">
<stop offset="0.06" stop-color="white"/>
<stop offset="1" stop-color="#D7EDFD" stop-opacity="0"/>
</linearGradient>
<linearGradient id="paint4_linear_138_4071" x1="-4.53878" y1="1282.1" x2="1440.56" y2="1282.1" gradientUnits="userSpaceOnUse">
<stop offset="0.06" stop-color="white"/>
<stop offset="1" stop-color="#D7EDFD" stop-opacity="0"/>
</linearGradient>
<linearGradient id="paint5_linear_138_4071" x1="-1.86328" y1="1304.19" x2="1443.52" y2="1304.19" gradientUnits="userSpaceOnUse">
<stop offset="0.06" stop-color="white"/>
<stop offset="1" stop-color="#D7EDFD" stop-opacity="0"/>
</linearGradient>
<linearGradient id="paint6_linear_138_4071" x1="0.8125" y1="1326.21" x2="1446.5" y2="1326.21" gradientUnits="userSpaceOnUse">
<stop stop-color="white"/>
<stop offset="1" stop-color="#D7EDFD" stop-opacity="0"/>
</linearGradient>
<linearGradient id="paint7_linear_138_4071" x1="3.488" y1="1348.16" x2="1449.46" y2="1348.16" gradientUnits="userSpaceOnUse">
<stop offset="0.06" stop-color="white"/>
<stop offset="1" stop-color="#D7EDFD" stop-opacity="0"/>
</linearGradient>
<linearGradient id="paint8_linear_138_4071" x1="6.17188" y1="1370" x2="1452.42" y2="1370" gradientUnits="userSpaceOnUse">
<stop offset="0.06" stop-color="white"/>
<stop offset="1" stop-color="#D7EDFD" stop-opacity="0"/>
</linearGradient>
<linearGradient id="paint9_linear_138_4071" x1="8.85156" y1="1391.71" x2="1455.4" y2="1391.71" gradientUnits="userSpaceOnUse">
<stop offset="0.06" stop-color="white"/>
<stop offset="1" stop-color="#D7EDFD" stop-opacity="0"/>
</linearGradient>
<linearGradient id="paint10_linear_138_4071" x1="712.53" y1="1563.36" x2="712.53" y2="1188.92" gradientUnits="userSpaceOnUse">
<stop offset="0.06" stop-color="white"/>
<stop offset="1" stop-color="#D7EDFD" stop-opacity="0"/>
</linearGradient>
<linearGradient id="paint11_linear_138_4071" x1="501.98" y1="1085.8" x2="1440.58" y2="1085.8" gradientUnits="userSpaceOnUse">
<stop stop-color="#D7EDFD" stop-opacity="0"/>
<stop offset="0.94" stop-color="white"/>
</linearGradient>
<linearGradient id="paint12_linear_138_4071" x1="-10.4219" y1="1133.1" x2="951.69" y2="1133.1" gradientUnits="userSpaceOnUse">
<stop offset="0.06" stop-color="white"/>
<stop offset="1" stop-color="#D7EDFD" stop-opacity="0"/>
</linearGradient>
<linearGradient id="paint13_linear_138_4071" x1="719.994" y1="222.865" x2="719.994" y2="-65.1086" gradientUnits="userSpaceOnUse">
<stop stop-color="#D7EDFD" stop-opacity="0"/>
<stop offset="0.94" stop-color="white"/>
</linearGradient>
<linearGradient id="paint14_linear_138_4071" x1="-11.3786" y1="255.739" x2="995.973" y2="255.739" gradientUnits="userSpaceOnUse">
<stop offset="0.06" stop-color="white"/>
<stop offset="1" stop-color="white" stop-opacity="0"/>
</linearGradient>
<linearGradient id="paint15_linear_138_4071" x1="333.117" y1="274.582" x2="1529.34" y2="274.582" gradientUnits="userSpaceOnUse">
<stop stop-color="#D7EDFD" stop-opacity="0"/>
<stop offset="0.94" stop-color="white"/>
</linearGradient>
<linearGradient id="paint16_linear_138_4071" x1="334.281" y1="255.74" x2="1529.7" y2="255.74" gradientUnits="userSpaceOnUse">
<stop stop-color="#D7EDFD" stop-opacity="0"/>
<stop offset="0.94" stop-color="white"/>
</linearGradient>
<linearGradient id="paint17_linear_138_4071" x1="335.461" y1="236.915" x2="1530.06" y2="236.915" gradientUnits="userSpaceOnUse">
<stop stop-color="#D7EDFD" stop-opacity="0"/>
<stop offset="0.94" stop-color="white"/>
</linearGradient>
<linearGradient id="paint18_linear_138_4071" x1="336.621" y1="218.075" x2="1530.42" y2="218.075" gradientUnits="userSpaceOnUse">
<stop stop-color="#D7EDFD" stop-opacity="0"/>
<stop offset="0.94" stop-color="white"/>
</linearGradient>
<linearGradient id="paint19_linear_138_4071" x1="337.801" y1="199.249" x2="1530.78" y2="199.249" gradientUnits="userSpaceOnUse">
<stop stop-color="#D7EDFD" stop-opacity="0"/>
<stop offset="0.94" stop-color="#FEFEFE"/>
</linearGradient>
<linearGradient id="paint20_linear_138_4071" x1="338.972" y1="180.407" x2="1531.14" y2="180.407" gradientUnits="userSpaceOnUse">
<stop stop-color="white" stop-opacity="0"/>
<stop offset="0.94" stop-color="white"/>
</linearGradient>
<linearGradient id="paint21_linear_138_4071" x1="340.16" y1="161.582" x2="1531.5" y2="161.582" gradientUnits="userSpaceOnUse">
<stop stop-color="white" stop-opacity="0"/>
<stop offset="0.94" stop-color="#F1F1F1"/>
</linearGradient>
<linearGradient id="paint22_linear_138_4071" x1="341.336" y1="142.74" x2="1531.86" y2="142.74" gradientUnits="userSpaceOnUse">
<stop stop-color="white" stop-opacity="0"/>
<stop offset="0.94" stop-color="white"/>
</linearGradient>
<linearGradient id="paint23_linear_138_4071" x1="342.523" y1="123.914" x2="1532.22" y2="123.914" gradientUnits="userSpaceOnUse">
<stop stop-color="white" stop-opacity="0"/>
<stop offset="0.94" stop-color="white"/>
</linearGradient>
<linearGradient id="paint24_linear_138_4071" x1="343.711" y1="105.09" x2="1532.57" y2="105.09" gradientUnits="userSpaceOnUse">
<stop stop-color="white" stop-opacity="0"/>
<stop offset="0.94" stop-color="white"/>
</linearGradient>
<linearGradient id="paint25_linear_138_4071" x1="344.903" y1="86.2487" x2="1532.94" y2="86.2487" gradientUnits="userSpaceOnUse">
<stop stop-color="white" stop-opacity="0"/>
<stop offset="0.94" stop-color="white"/>
</linearGradient>
<linearGradient id="paint26_linear_138_4071" x1="346.09" y1="67.4236" x2="1533.3" y2="67.4236" gradientUnits="userSpaceOnUse">
<stop stop-color="white" stop-opacity="0"/>
<stop offset="0.94" stop-color="white"/>
</linearGradient>
<linearGradient id="paint27_linear_138_4071" x1="347.277" y1="48.5982" x2="1533.66" y2="48.5982" gradientUnits="userSpaceOnUse">
<stop stop-color="white" stop-opacity="0"/>
<stop offset="0.94" stop-color="white"/>
</linearGradient>
<linearGradient id="paint28_linear_138_4071" x1="348.481" y1="29.7736" x2="1534.02" y2="29.7736" gradientUnits="userSpaceOnUse">
<stop stop-color="white" stop-opacity="0"/>
<stop offset="0.94" stop-color="#FEFEFE"/>
</linearGradient>
<linearGradient id="paint29_linear_138_4071" x1="349.629" y1="10.9306" x2="1534.38" y2="10.9306" gradientUnits="userSpaceOnUse">
<stop stop-color="white" stop-opacity="0"/>
<stop offset="0.94" stop-color="white"/>
</linearGradient>
<linearGradient id="paint30_linear_138_4071" x1="350.746" y1="-8.18807" x2="1534.74" y2="-8.18807" gradientUnits="userSpaceOnUse">
<stop stop-color="white" stop-opacity="0"/>
<stop offset="0.94" stop-color="white"/>
</linearGradient>
<linearGradient id="paint31_linear_138_4071" x1="351.851" y1="-27.5716" x2="1535.1" y2="-27.5716" gradientUnits="userSpaceOnUse">
<stop stop-color="#FEFEFE" stop-opacity="0"/>
<stop offset="0.94" stop-color="white"/>
</linearGradient>
<linearGradient id="paint32_linear_138_4071" x1="352.965" y1="-47.1522" x2="1535.46" y2="-47.1522" gradientUnits="userSpaceOnUse">
<stop stop-color="white" stop-opacity="0"/>
<stop offset="0.94" stop-color="white"/>
</linearGradient>
<linearGradient id="paint33_linear_138_4071" x1="354.082" y1="-66.946" x2="1535.82" y2="-66.946" gradientUnits="userSpaceOnUse">
<stop stop-color="white" stop-opacity="0"/>
<stop offset="0.94" stop-color="white"/>
</linearGradient>
<linearGradient id="paint34_linear_138_4071" x1="355.199" y1="-86.8871" x2="1536.18" y2="-86.8871" gradientUnits="userSpaceOnUse">
<stop stop-color="white" stop-opacity="0"/>
<stop offset="0.94" stop-color="white"/>
</linearGradient>
<linearGradient id="paint35_linear_138_4071" x1="356.316" y1="-106.944" x2="1536.54" y2="-106.944" gradientUnits="userSpaceOnUse">
<stop stop-color="#D7EDFD" stop-opacity="0"/>
<stop offset="0.94" stop-color="white"/>
</linearGradient>
<linearGradient id="paint36_linear_138_4071" x1="357.442" y1="-127.147" x2="1536.9" y2="-127.147" gradientUnits="userSpaceOnUse">
<stop stop-color="#D7EDFD" stop-opacity="0"/>
<stop offset="0.94" stop-color="white"/>
</linearGradient>
</defs>
</svg>
