<?xml version="1.0" encoding="UTF-8"?>
<svg xmlns="http://www.w3.org/2000/svg" width="1440" height="641" viewBox="0 0 1440 641" fill="none">
  <g opacity="0.2">
    <mask id="mask0_138_4148" style="mask-type:luminance" maskUnits="userSpaceOnUse" x="0" y="0" width="1440" height="641">
      <path d="M1440 0H0V641H1440V0Z" fill="white"></path>
    </mask>
    <g mask="url(#mask0_138_4148)">
      <path d="M1427.85 604.319C1427.59 604.134 1400.89 586.01 1347.63 566.444C1298.47 548.391 1215.98 525.388 1102.17 518.345C977.047 510.596 880.999 536.116 788.131 560.803C718.159 579.4 645.799 598.622 562.844 602.58C422.768 609.254 308.432 589.704 224.936 575.418C194.144 570.153 167.54 565.602 145.556 563.391C68.3836 555.635 -14.0084 570.065 -14.8364 570.209L-15.1484 569.432C-14.3204 569.288 68.2996 554.817 145.724 562.598C167.78 564.817 194.396 569.368 225.224 574.64C308.636 588.911 422.876 608.445 562.747 601.779C645.523 597.829 717.788 578.631 787.676 560.058C880.688 535.339 976.844 509.787 1102.28 517.551C1216.32 524.61 1298.98 547.662 1348.26 565.763C1401.66 585.385 1428.45 603.582 1428.72 603.758L1427.85 604.319Z" fill="url(#paint0_linear_138_4148)"></path>
      <path d="M1430.84 621.105C1426.15 618.22 1313.62 550.226 1102.99 538.184C1069.15 536.333 1035.47 536.886 1002.91 539.818C932.106 546.204 867.138 561.564 804.318 576.411C728.022 594.447 649.122 613.1 561.882 614.575C533.538 615.048 504.246 614.206 472.338 611.979C388.398 606.138 313.482 593.486 253.302 583.326C212.454 576.427 177.174 570.474 147.966 567.99C75.6897 561.845 -3.73831 574.296 -12.0783 576.78L-12.5703 576.051C-4.18231 573.551 75.5937 561.027 148.11 567.197C177.39 569.689 212.706 575.65 253.59 582.557C313.746 592.717 388.602 605.352 472.458 611.194C504.318 613.413 533.562 614.254 561.846 613.782C648.894 612.315 724.194 594.511 803.91 575.666C866.802 560.803 931.83 545.427 1002.74 539.033C1035.39 536.084 1069.15 535.539 1103.08 537.39C1314.13 549.457 1426.95 617.628 1431.64 620.528L1430.83 621.113L1430.84 621.105Z" fill="url(#paint1_linear_138_4148)"></path>
      <path d="M1433.81 637.867C1432.69 637.178 1312.52 568.407 1103.81 558.006C1069.99 556.324 1036.34 557.205 1003.77 560.642C942.274 567.125 882.826 579.648 825.346 591.755C743.95 608.902 659.866 626.617 570.658 626.617C567.418 626.617 564.178 626.593 560.914 626.545C533.614 626.145 504.742 624.166 472.654 620.488C406.87 612.948 346.078 602.42 292.45 593.125C237.382 583.582 189.838 575.345 150.358 572.557C76.4859 567.341 1.14994 580.193 -9.42206 583.342L-9.91406 582.613C0.705938 579.448 76.3779 566.524 150.478 571.764C190.042 574.56 237.634 582.805 292.738 592.356C346.342 601.642 407.11 612.171 472.834 619.703C504.862 623.372 533.674 625.351 560.926 625.752C653.566 627.122 740.698 608.749 824.962 591.002C882.49 578.887 941.962 566.355 1003.56 559.857C1036.22 556.412 1069.97 555.522 1103.87 557.213C1312.98 567.637 1433.47 636.593 1434.59 637.282L1433.77 637.867H1433.81Z" fill="url(#paint2_linear_138_4148)"></path>
      <path d="M1436.78 654.629C1432.56 652.025 1398.78 635.063 1340.23 617.339C1288.77 601.755 1206.14 582.252 1104.63 577.838C1070.45 576.347 1036.81 577.573 1004.65 581.475C953.902 587.629 902.554 597.348 852.898 606.747C758.146 624.679 660.177 643.22 559.977 638.532C532.605 637.25 504.969 634.221 472.989 629.005C429.537 621.914 388.257 614.174 348.333 606.683C272.697 592.5 207.381 580.249 152.793 577.14C84.0094 573.222 10.8094 584.696 -6.73456 589.92L-7.22656 589.191C10.9894 583.767 82.9294 572.357 152.889 576.347C207.585 579.464 272.961 591.723 348.657 605.921C388.569 613.405 429.849 621.145 473.277 628.236C505.185 633.444 532.761 636.465 560.061 637.739C660.057 642.426 757.929 623.901 852.573 605.985C902.253 596.579 953.637 586.86 1004.43 580.69C1036.68 576.78 1070.42 575.554 1104.71 577.044C1206.39 581.467 1289.17 601.01 1340.72 616.618C1399.41 634.39 1433.34 651.432 1437.59 654.052L1436.77 654.637L1436.78 654.629Z" fill="url(#paint3_linear_138_4148)"></path>
      <path d="M1439.75 671.391C1433.45 667.513 1396.1 650.847 1337.73 634.334C1285.62 619.591 1203.01 601.258 1105.45 597.652C1070.75 596.37 1037.12 597.933 1005.51 602.292C967.641 607.516 929.709 614.094 889.557 621.057C781.197 639.854 669.153 659.284 559.017 650.495C531.813 648.323 503.781 644.077 473.313 637.498C458.997 634.414 444.789 631.305 430.713 628.236C329.133 606.057 233.181 585.113 155.205 581.707C87.6332 578.751 18.1292 589.872 -4.05878 596.482L-4.55078 595.753C22.2452 587.773 92.6972 578.174 155.277 580.906C233.397 584.328 329.421 605.28 431.085 627.475C445.161 630.544 459.369 633.652 473.673 636.737C504.069 643.292 532.029 647.538 559.149 649.702C669.069 658.467 781.005 639.053 889.257 620.28C929.421 613.309 967.365 606.73 1005.27 601.506C1036.98 597.131 1070.71 595.561 1105.51 596.851C1203.25 600.465 1285.99 618.821 1338.19 633.596C1396.7 650.15 1434.2 666.896 1440.54 670.798L1439.72 671.383L1439.75 671.391Z" fill="url(#paint4_linear_138_4148)"></path>
      <path d="M1442.71 688.154C1434.61 683.162 1393.52 666.728 1335.24 651.36C1282.51 637.459 1200 620.296 1106.28 617.475C1070.94 616.418 1037.34 618.309 1006.39 623.116C984.933 626.449 963.189 630.055 940.161 633.869C819.357 653.892 682.437 676.592 558.069 662.474C530.277 659.317 502.665 653.932 473.637 646.008C366.501 616.746 254.073 589.255 157.629 586.283C97.1727 584.424 30.5847 593.534 -1.37128 603.053L-1.86328 602.324C30.2127 592.765 97.0407 583.615 157.689 585.481C254.325 588.454 366.873 615.969 474.105 645.263C503.037 653.171 530.577 658.539 558.273 661.68C682.401 675.766 819.189 653.091 939.885 633.092C962.913 629.278 984.669 625.672 1006.14 622.331C1037.18 617.507 1070.9 615.6 1106.35 616.674C1200.24 619.503 1282.89 636.689 1335.7 650.615C1394.13 666.015 1435.39 682.537 1443.55 687.561L1442.73 688.146L1442.71 688.154Z" fill="url(#paint5_linear_138_4148)"></path>
      <path d="M1445.68 704.916C1437.39 699.804 1395.75 683.851 1332.75 668.419C1279.48 655.366 1197.09 639.373 1107.1 637.314C1071.02 636.489 1037.43 638.716 1007.28 643.956C915.765 659.837 788.672 681.888 667.904 681.888C629.912 681.888 592.557 679.708 557.121 674.46C528.897 670.285 500.913 663.571 473.973 654.525C352.917 613.853 247.305 592.436 160.053 590.874C97.6405 589.76 35.3605 599.495 1.3045 609.639L0.8125 608.91C34.9885 598.726 97.4965 588.959 160.077 590.072C247.509 591.635 353.289 613.076 474.501 653.804C501.357 662.826 529.232 669.516 557.372 673.675C705.153 695.541 886.785 664.028 1006.96 643.171C1037.23 637.923 1070.92 635.679 1107.14 636.505C1197.28 638.572 1279.81 654.589 1333.16 667.657C1396.32 683.129 1438.14 699.171 1446.49 704.323L1445.67 704.908L1445.68 704.916Z" fill="url(#paint6_linear_138_4148)"></path>
      <path d="M1448.65 721.686C1439 715.741 1394.71 700.132 1330.26 685.502C1276.51 673.299 1194.3 658.475 1107.93 657.145C1070.97 656.576 1037.41 659.149 1008.15 664.781C932.24 679.404 856.16 689.684 788.156 694.508C698.228 700.886 620.18 698.169 556.172 686.431C526.976 681.079 499.424 673.202 474.308 663.019C399.044 632.515 283.844 596.026 162.476 595.449C108.56 595.193 47.852 603.149 3.992 616.21L3.5 615.48C47.504 602.372 108.428 594.375 162.476 594.648C284.12 595.233 399.524 631.778 474.92 662.337C499.952 672.481 527.384 680.326 556.484 685.662C620.348 697.368 698.252 700.076 788.024 693.714C855.956 688.899 931.964 678.627 1007.82 664.012C1037.19 658.355 1070.89 655.775 1107.96 656.344C1194.48 657.674 1276.81 672.521 1330.64 684.74C1395.97 699.572 1439.46 714.932 1449.46 721.101L1448.65 721.686Z" fill="url(#paint7_linear_138_4148)"></path>
      <path d="M1451.62 738.448C1426.73 723.112 1258.14 678.066 1108.76 676.968C1070.85 676.696 1037.27 679.596 1009.02 685.606C942.076 699.852 863.968 709.643 789.064 713.177C699.34 717.407 618.472 712.295 555.22 698.41C524.968 691.767 497.86 682.721 474.628 671.52C378.832 625.328 270.892 600 170.068 600C168.34 600 166.612 600 164.884 600.024C110.536 600.497 54.3519 608.573 6.66387 622.78L6.17188 622.051C54.0039 607.804 110.368 599.696 164.872 599.223C267.424 598.35 377.68 623.781 475.336 670.871C498.46 682.024 525.46 691.03 555.592 697.648C689.2 726.982 879.412 712.351 1008.66 684.844C1037.03 678.803 1070.7 675.879 1108.77 676.167C1258.44 677.273 1427.46 722.471 1452.44 737.863L1451.62 738.448Z" fill="url(#paint8_linear_138_4148)"></path>
      <path d="M1454.59 755.21C1437.21 744.497 1359.88 724.009 1272.49 710.58C1209.27 700.869 1091.1 687.416 1009.9 706.43C934.796 724.017 829.712 733.793 735.632 731.942C682.16 730.884 633.404 726.325 590.732 718.385C543.14 709.531 504.188 696.623 474.968 680.013C411.2 643.78 336.8 619.39 259.796 609.487C218.876 604.222 177.404 603.077 136.532 606.073C93.3436 609.246 50.5516 617.075 9.34356 629.35L8.85156 628.621C50.1796 616.313 93.0916 608.453 136.4 605.28C177.392 602.275 218.984 603.421 260.012 608.701C337.22 618.629 411.812 643.083 475.736 679.404C504.824 695.934 543.62 708.786 591.044 717.607C633.632 725.532 682.292 730.083 735.668 731.132C829.592 732.983 934.532 723.224 1009.51 705.669C1090.99 686.591 1209.42 700.068 1272.76 709.795C1360.35 723.248 1437.92 743.832 1455.42 754.617L1454.6 755.202L1454.59 755.21Z" fill="url(#paint9_linear_138_4148)"></path>
      <path d="M1435.48 728.802C1271.45 627.7 968.478 694.092 780.93 699.925C489.882 708.979 280.41 516.238 -10.4219 602.869V763.216H1435.48V728.794V728.802Z" fill="url(#paint10_linear_138_4148)"></path>
      <path d="M1440.56 699.363C1429.62 695.485 1418.3 692.08 1406.74 689.099C1394.36 685.902 1381.71 683.186 1368.91 680.855C1354.82 678.291 1340.54 676.191 1326.18 674.445C1310.26 672.514 1294.23 671.007 1278.16 669.813C1260.27 668.491 1242.33 667.546 1224.36 666.881C1204.34 666.136 1184.3 665.727 1164.25 665.559C1141.94 665.366 1119.63 665.462 1097.34 665.759C1072.58 666.087 1047.84 666.656 1023.1 667.393C995.732 668.211 968.384 669.228 941.036 670.382C910.892 671.656 880.76 673.09 850.628 674.629C822.872 676.047 795.044 676.944 767.204 677C744.176 677.049 721.136 676.536 698.18 675.222C679.46 674.148 660.8 672.546 642.344 670.19C627.308 668.267 612.404 665.839 597.836 662.706C586.268 660.222 574.892 657.282 563.948 653.748C555.248 650.936 546.8 647.739 538.856 644.061C532.748 641.233 526.916 638.116 521.576 634.654C517.568 632.058 513.836 629.27 510.536 626.265C508.304 624.238 506.264 622.115 504.548 619.879C503.66 618.718 502.82 617.524 502.196 616.29C502.112 616.138 502.04 615.977 501.98 615.825C503 616.827 504.164 617.772 505.34 618.694C508.652 621.29 512.288 623.685 516.104 625.953C522.104 629.518 528.572 632.723 535.328 635.616C544.484 639.542 554.18 642.899 564.188 645.744C576.86 649.349 590.036 652.146 603.44 654.269C620.24 656.929 637.4 658.532 654.632 659.309C675.8 660.27 697.076 659.998 718.208 658.844C744.38 657.41 770.36 654.606 796.004 650.872C827.204 646.329 857.936 640.391 888.152 633.525C919.484 626.402 950.324 618.309 980.504 609.223C1007.92 600.97 1034.8 591.924 1061.1 582.157C1086.12 572.862 1110.6 562.919 1134.51 552.398C1157.11 542.455 1179.19 531.99 1200.73 521.053C1220.61 510.965 1240.04 500.469 1259 489.612C1276.34 479.677 1293.28 469.437 1309.82 458.908C1324.34 449.662 1338.54 440.191 1352.38 430.504C1364.18 422.251 1375.74 413.838 1387 405.265C1395.91 398.494 1404.63 391.627 1413.14 384.64C1419.12 379.737 1424.98 374.785 1430.71 369.753C1433.7 367.125 1436.66 364.481 1439.53 361.789C1439.88 361.46 1440.22 361.132 1440.57 360.803L1440.55 699.363H1440.56Z" fill="url(#paint11_linear_138_4148)"></path>
      <path d="M-10.4219 473.347C159.21 460.006 330.27 496.864 469.638 559.874C625.734 630.44 802.206 635.608 951.69 552.639C877.278 637.451 640.158 657.242 520.146 612.436C457.074 588.887 407.478 551.805 345.174 527.167C237.654 484.644 112.374 475.927 -10.4219 481.231V473.355V473.347Z" fill="url(#paint12_linear_138_4148)"></path>
      <path d="M-2.76562 73.6746C159.198 28.8126 352.086 19.0534 522.99 41.264C729.246 68.0739 928.53 125.467 1142.96 104.13C1237.43 94.7314 1354.37 70.702 1442.74 108.801V-31.7939H-2.76562V73.6666V73.6746Z" fill="url(#paint13_linear_138_4148)"></path>
      <path d="M995.529 108.681C969.369 115.067 940.965 119.05 912.381 121.606C881.793 124.338 850.593 125.436 819.525 125.107C790.197 124.795 760.773 123.24 732.189 119.867C696.573 115.668 661.761 109.931 627.273 103.866C592.713 97.7925 558.405 91.3584 523.581 85.6616C489.057 80.0047 453.993 75.2293 418.377 71.6237C382.773 68.0261 346.689 65.5582 310.437 64.4044C274.305 63.2506 237.993 63.3868 201.933 65.0134C166.557 66.5998 131.277 69.5564 96.9814 74.2197C65.4574 78.5064 34.4254 84.4997 7.37738 93.7942C0.837377 96.0377 -5.45062 98.4735 -11.3906 101.102C30.0934 97.5361 72.2014 95.8134 114.285 95.8454C156.393 95.8855 198.417 97.7204 239.925 101.246C280.605 104.699 321.225 108.946 360.033 116.077C394.425 122.391 427.029 130.836 459.117 139.618C491.157 148.383 522.813 157.542 555.777 165.434C587.997 173.15 621.633 179.648 656.805 183.07C688.737 186.17 721.605 186.795 753.957 185.217C786.453 183.63 818.553 179.824 848.949 173.855C879.141 167.926 907.725 159.841 932.913 149.617C944.805 144.786 955.473 139.409 966.009 133.865C975.765 128.721 986.277 123.384 992.529 116.934C994.965 114.426 996.861 111.486 995.529 108.681Z" fill="url(#paint14_linear_138_4148)"></path>
      <path d="M1529.06 285.045C1392.31 263.764 1261.91 221.682 1151.96 163.359C1136.79 155.315 1121.75 146.821 1107.2 138.609C1079.22 122.816 1050.27 106.478 1019.33 92.6729C964.377 68.1627 911.277 55.9917 861.501 56.4564C832.869 56.7289 804.429 61.2399 776.913 65.5987C764.661 67.5377 752.001 69.5489 739.461 71.1594C667.917 80.3577 591.957 77.0005 519.813 61.4562C447.669 45.912 383.109 18.99 333.105 -16.4012L333.981 -16.9541C383.841 18.341 448.233 45.1828 520.185 60.695C592.137 76.1992 667.881 79.5484 739.233 70.3741C751.737 68.7636 764.397 66.7605 776.637 64.8215C804.213 60.4547 832.725 55.9356 861.489 55.6552C911.529 55.1905 964.833 67.4015 1019.99 92.0079C1050.99 105.837 1079.96 122.183 1107.97 137.992C1122.51 146.204 1137.56 154.69 1152.71 162.726C1262.52 220.977 1392.75 263.003 1529.34 284.26L1529.06 285.037V285.045Z" fill="url(#paint15_linear_138_4148)"></path>
      <path d="M1529.41 272.457C1392.45 249.838 1262.11 208.79 1152.45 153.752C1137.27 146.132 1122.19 138.088 1107.6 130.316C1090.08 120.981 1071.96 111.326 1053.59 102.344C1041.2 96.2944 1029.79 91.0703 1018.69 86.375C963.489 63.0265 910.437 51.3603 860.949 51.6889C832.653 51.8811 804.513 56.0076 777.309 59.9978C764.877 61.8247 752.025 63.7076 739.317 65.1979C671.205 73.1623 599.097 69.8932 530.781 55.7512C494.493 48.2435 458.985 37.6109 425.229 24.1659C391.581 10.753 360.981 -4.83132 334.281 -22.1624L335.121 -22.7393C361.749 -5.44828 392.277 10.104 425.853 23.4768C459.513 36.8898 494.937 47.4983 531.141 54.99C599.265 69.092 671.181 72.3531 739.113 64.4127C751.797 62.9304 764.637 61.0475 777.057 59.2206C804.321 55.2224 832.521 51.0879 860.937 50.8956C910.689 50.5591 963.933 62.2734 1019.34 85.7019C1030.46 90.4052 1041.9 95.6374 1054.31 101.703C1072.7 110.693 1090.82 120.356 1108.35 129.699C1122.93 137.471 1138.02 145.507 1153.19 153.119C1262.71 208.093 1392.91 249.093 1529.71 271.688L1529.42 272.465L1529.41 272.457Z" fill="url(#paint16_linear_138_4148)"></path>
      <path d="M1529.76 259.87C1392.26 235.824 1261.97 195.802 1152.96 144.137C1137.79 136.942 1122.68 129.362 1108.08 122.031C1090.26 113.089 1071.83 103.834 1053.18 95.237C1040.72 89.492 1029.24 84.5323 1018.06 80.0533C962.617 57.8667 909.577 46.6973 860.389 46.8976C832.453 47.0017 804.661 50.7516 777.781 54.3812C765.145 56.0879 752.077 57.8507 739.165 59.2128C671.065 66.376 599.401 62.4979 531.937 47.9873C496.897 40.4555 461.605 29.7588 427.045 16.1856C393.985 3.19739 362.317 -12.0664 335.461 -27.9552L336.253 -28.5562C363.049 -12.6994 394.645 2.53235 427.645 15.4966C462.121 29.0377 497.329 39.7184 532.297 47.2261C599.593 61.6967 671.053 65.5667 738.973 58.4195C751.861 57.0654 764.905 55.3027 777.529 53.596C804.469 49.9664 832.321 46.2085 860.365 46.0963C909.817 45.888 963.025 57.0975 1018.66 79.3642C1029.86 83.8432 1041.37 88.819 1053.85 94.572C1072.51 103.177 1090.96 112.432 1108.79 121.39C1123.38 128.713 1138.48 136.293 1153.63 143.48C1262.53 195.089 1392.7 235.063 1530.05 259.093L1529.75 259.87H1529.76Z" fill="url(#paint17_linear_138_4148)"></path>
      <path d="M1530.09 247.282C1391.59 221.69 1261.34 182.693 1153.44 134.53C1138.3 127.76 1123.22 120.653 1108.64 113.77C1090.48 105.213 1071.72 96.3587 1052.77 88.1379C1040.22 82.6974 1028.66 77.9861 1017.42 73.7475C961.737 52.7226 908.733 42.1061 859.821 42.1221C832.269 42.1461 804.849 45.5194 778.317 48.7805C765.453 50.367 752.145 52.0015 739.005 53.2354C670.917 59.5974 599.697 55.1024 533.073 40.2312C499.425 32.7315 464.349 21.9546 428.841 8.2132C396.105 -4.46258 364.221 -18.9652 336.633 -33.7403L337.389 -34.3652C364.929 -19.6222 396.765 -5.13563 429.453 7.51611C464.889 21.2335 499.893 31.9863 533.457 39.47C599.913 54.2931 670.929 58.7801 738.837 52.4342C751.953 51.2083 765.249 49.5657 778.101 47.9873C804.681 44.7181 832.149 41.3369 859.809 41.3128H860.133C909.141 41.3128 962.253 51.9855 1018 73.0423C1029.27 77.289 1040.85 82.0083 1053.42 87.4568C1072.39 95.6857 1091.17 104.548 1109.32 113.105C1123.9 119.98 1138.98 127.087 1154.1 133.849C1261.89 181.972 1392.02 220.921 1530.4 246.497L1530.08 247.266L1530.09 247.282Z" fill="url(#paint18_linear_138_4148)"></path>
      <path d="M1530.44 234.695C1388.22 206.979 1261.54 170.042 1153.93 124.915C1138.87 118.586 1123.84 111.943 1109.3 105.525C1090.79 97.3444 1071.65 88.8832 1052.35 81.039C1039.72 75.903 1028.08 71.456 1016.77 67.4418C960.84 47.5708 907.848 37.451 859.248 37.3548C858.996 37.3548 858.744 37.3548 858.492 37.3548C831.612 37.3548 804.852 40.3274 778.968 43.2039C765.828 44.6622 752.244 46.1766 738.84 47.2743C670.752 52.827 599.988 47.715 534.216 32.4992C501.696 24.9835 467.82 14.4391 430.644 0.264954C398.712 -11.914 366.612 -25.6635 337.812 -39.4931L338.508 -40.1421C367.284 -26.3205 399.348 -12.5951 431.244 -0.424122C468.36 13.734 502.164 24.2544 534.612 31.7541C600.216 46.9298 670.788 52.0257 738.696 46.4971C752.076 45.3994 765.648 43.893 778.764 42.4347C804.948 39.5262 831.996 36.5055 859.248 36.5776C908.04 36.6737 961.236 46.8336 1017.34 66.7607C1028.66 70.783 1040.33 75.2379 1052.98 80.3819C1072.28 88.2422 1091.44 96.7034 1109.96 104.884C1124.5 111.302 1139.52 117.945 1154.57 124.266C1262.08 169.353 1388.65 206.258 1530.77 233.95L1530.43 234.719L1530.44 234.695Z" fill="url(#paint19_linear_138_4148)"></path>
      <path d="M1530.79 222.107C1385.68 192.34 1259.06 156.404 1154.43 115.308C1139.49 109.419 1124.56 103.265 1110.12 97.3038C1091.19 89.4916 1071.62 81.423 1051.95 73.9394C1039.23 69.1078 1027.52 64.9173 1016.14 61.1354C959.972 42.4262 907.004 32.8192 858.692 32.5788C831.992 32.4346 805.448 35.0788 779.744 37.6267C766.304 38.9568 752.396 40.335 738.692 41.2965C670.604 46.0238 600.296 40.3029 535.364 24.7426C504.296 17.307 471.596 6.99494 432.452 -7.708C402.8 -18.8454 371.36 -31.4891 338.996 -45.2786L339.644 -45.9517C371.996 -32.1702 403.412 -19.5345 433.052 -8.40509C472.136 6.28182 504.776 16.5699 535.784 23.9894C600.536 39.5097 670.664 45.2226 738.584 40.5032C752.264 39.5417 766.148 38.1716 779.576 36.8335C805.328 34.2775 831.968 31.6334 858.716 31.7776C907.208 32.018 960.368 41.657 1016.7 60.4223C1028.1 64.2122 1039.83 68.4108 1052.56 73.2503C1072.26 80.742 1091.84 88.8186 1110.76 96.6308C1125.2 102.584 1140.13 108.746 1155.06 114.627C1259.6 155.691 1386.14 191.603 1531.16 221.353L1530.81 222.123L1530.79 222.107Z" fill="url(#paint20_linear_138_4148)"></path>
      <path d="M1531.12 209.527C1376.98 176.292 1257.44 143.304 1154.92 105.701C1140.18 100.277 1125.4 94.6041 1111.12 89.1235C1091.72 81.6719 1071.67 73.9719 1051.53 66.8408C1038.74 62.3137 1026.94 58.3796 1015.5 54.822C958.304 37.0262 906.824 28.1805 858.116 27.7959C831.956 27.5795 805.868 29.8551 780.644 32.0585C766.844 33.2604 752.576 34.5023 738.524 35.3196C670.436 39.2297 600.572 32.8918 536.504 16.987C499.28 7.7646 463.928 -4.70284 434.24 -15.68C415.292 -22.6909 396.548 -29.782 378.428 -36.6407C364.928 -41.7526 352.184 -46.5762 340.148 -51.0632L340.736 -51.7603C352.772 -47.2733 365.516 -42.4497 379.016 -37.3378C397.136 -30.4791 415.868 -23.388 434.816 -16.3851C464.456 -5.41596 499.772 7.03546 536.912 16.2338C600.824 32.0905 670.496 38.4124 738.416 34.5183C752.444 33.7011 766.7 32.4591 780.488 31.2653C805.76 29.0618 831.896 26.7943 858.128 26.9946C907.004 27.3792 958.652 36.249 1016 54.0929C1027.47 57.6584 1039.28 61.5926 1052.1 66.1276C1072.24 73.2668 1092.31 80.9748 1111.72 88.4265C1125.99 93.907 1140.75 99.5718 1155.5 104.996C1257.96 142.567 1377.43 175.538 1531.5 208.758L1531.12 209.519V209.527Z" fill="url(#paint21_linear_138_4148)"></path>
      <path d="M1531.47 196.939C1413.37 170.218 1276.34 137.334 1155.42 96.094C1140.93 91.1342 1126.41 85.9662 1112.38 80.9744C1092.43 73.8753 1071.8 66.5279 1051.14 59.7413C1038.26 55.5187 1026.4 51.849 1014.87 48.5158C957.44 31.8898 905.984 23.5568 857.564 23.02C831.956 22.7395 806.432 24.6545 781.724 26.5134C767.516 27.5791 752.828 28.6848 738.368 29.3499C670.28 32.4347 600.872 25.4798 537.644 9.24651C502.412 0.216419 468.128 -11.9546 436.04 -23.6448C400.652 -36.5289 369.104 -47.9227 341.336 -56.8326L341.852 -57.5537C369.644 -48.6358 401.216 -37.234 436.616 -24.3419C468.668 -12.6677 502.904 -0.512722 538.076 8.50134C601.136 24.6946 670.364 31.6334 738.284 28.5566C752.72 27.8916 767.396 26.7939 781.58 25.7282C806.324 23.8693 831.896 21.9463 857.576 22.2348C906.152 22.7636 957.764 31.1286 1015.34 47.7946C1026.9 51.1278 1038.78 54.8056 1051.66 59.0362C1072.34 65.8308 1092.98 73.1782 1112.95 80.2773C1126.98 85.2691 1141.5 90.4371 1155.97 95.3889C1276.82 136.613 1413.8 169.48 1531.86 196.194L1531.47 196.955V196.939Z" fill="url(#paint22_linear_138_4148)"></path>
      <path d="M1531.81 184.351L1510.41 179.279C1391.04 151.003 1267.59 121.758 1155.91 86.4785C1141.8 81.9995 1127.64 77.3522 1113.94 72.8572C1093.33 66.0867 1072.02 59.0918 1050.72 52.6337C1037.77 48.7156 1025.83 45.3022 1014.22 42.2014C956.563 26.7533 905.131 18.9171 856.987 18.244C832.039 17.8915 807.103 19.4619 782.995 20.9843C768.319 21.9138 753.127 22.8672 738.199 23.372C670.099 25.6155 601.147 18.0517 538.783 1.4899C505.603 -7.30783 473.419 -18.8538 442.303 -30.0152L437.839 -31.6177C412.231 -40.7921 374.503 -53.9967 342.523 -62.6181L342.967 -63.3633C375.007 -54.7258 412.783 -41.5132 438.403 -32.3229L442.867 -30.7203C473.959 -19.5669 506.107 -8.03696 539.227 0.744743C601.435 17.2665 670.219 24.8143 738.139 22.5708C753.043 22.066 768.211 21.1125 782.875 20.1831C807.019 18.6607 831.979 17.0822 856.999 17.4348C905.287 18.1078 956.863 25.9681 1014.66 41.4482C1026.28 44.5571 1038.24 47.9704 1051.21 51.8965C1072.52 58.3546 1093.84 65.3575 1114.47 72.1281C1128.16 76.6231 1142.31 81.2704 1156.41 85.7413C1268.04 121.004 1391.46 150.242 1510.81 178.51L1532.2 183.582L1531.81 184.335V184.351Z" fill="url(#paint23_linear_138_4148)"></path>
      <path d="M1532.15 171.764C1495.78 162.734 1458.44 153.76 1422.32 145.082C1333.31 123.697 1241.29 101.583 1156.41 76.872C1142.83 72.8978 1129.17 68.7794 1115.96 64.8052C1094.55 58.3552 1072.4 51.6807 1050.32 45.5432C1037.3 41.9295 1025.29 38.7726 1013.59 35.8961C955.699 21.6179 904.291 14.2864 856.423 13.4691C832.183 13.0525 807.955 14.2864 784.531 15.4883C769.291 16.2655 753.535 17.0748 738.043 17.4033C669.943 18.8135 601.435 10.6247 539.935 -6.25764C511.099 -14.158 482.971 -24.1736 455.767 -33.8607C450.391 -35.7757 445.027 -37.6827 439.651 -39.5816C400.471 -53.4032 369.091 -62.8259 343.711 -68.3946L344.083 -69.1558C369.523 -63.571 400.963 -54.1323 440.203 -40.2867C445.579 -38.3878 450.955 -36.4808 456.331 -34.5658C483.511 -24.8867 511.615 -14.8871 540.391 -7.00281C601.735 9.83947 670.075 17.9962 738.007 16.594C753.463 16.2655 769.207 15.4643 784.435 14.679C807.895 13.4771 832.147 12.2432 856.447 12.6599C904.447 13.4771 955.987 20.8326 1013.99 35.1349C1025.71 38.0114 1037.73 41.1683 1050.77 44.79C1072.88 50.9356 1095.03 57.61 1116.45 64.0601C1129.65 68.0343 1143.31 72.1527 1156.89 76.1269C1241.74 100.829 1333.75 122.936 1422.73 144.321C1458.85 152.999 1496.19 161.973 1532.57 171.003L1532.15 171.756V171.764Z" fill="url(#paint24_linear_138_4148)"></path>
      <path d="M1532.51 159.177C1473.68 143.913 1412.82 129.562 1353.96 115.685C1288.37 100.221 1220.54 84.2276 1156.91 67.2571C1144.03 63.8037 1131.08 60.2462 1118.55 56.8008C1096.15 50.6472 1072.98 44.2773 1049.91 38.4362C1036.81 35.127 1024.71 32.2265 1012.95 29.5823C954.851 16.4819 903.467 9.64724 855.851 8.69376C832.439 8.22102 809.015 9.13443 786.371 10.0238C770.471 10.6488 754.019 11.2898 737.879 11.434C668.795 12.0029 602.579 3.43755 541.067 -14.0057C515.675 -21.1929 490.787 -30.0547 466.727 -38.6201C458.447 -41.5687 449.891 -44.6134 441.443 -47.546C403.175 -60.8307 370.691 -69.7887 344.891 -74.1715L345.191 -74.9487C371.075 -70.5419 403.643 -61.5598 441.995 -48.2511C450.443 -45.3185 459.011 -42.2738 467.291 -39.3252C491.339 -30.7678 516.191 -21.914 541.535 -14.7428C602.891 2.65233 668.951 11.2017 737.855 10.6328C753.971 10.4886 770.399 9.84755 786.287 9.23059C808.967 8.3412 832.415 7.42777 855.875 7.90051C903.611 8.86201 955.103 15.7047 1013.33 28.8372C1025.1 31.4813 1037.21 34.3818 1050.32 37.699C1073.4 43.5401 1096.57 49.91 1118.99 56.0717C1131.51 59.517 1144.46 63.0746 1157.34 66.528C1220.94 83.4984 1288.76 99.4834 1354.34 114.947C1413.21 128.825 1474.09 143.176 1532.93 158.447L1532.49 159.193L1532.51 159.177Z" fill="url(#paint25_linear_138_4148)"></path>
      <path d="M1532.84 146.589C1456.16 125.805 1376.11 107.76 1298.69 90.3011C1251.87 79.7487 1203.47 68.8356 1157.41 57.6422C1145.57 54.7497 1133.63 51.777 1122.08 48.9086C1098.38 43.0114 1073.87 36.9058 1049.52 31.3372C1036.35 28.3325 1024.19 25.6883 1012.33 23.2766C954.034 11.346 902.662 5.01609 855.298 3.91837C832.846 3.39757 810.358 4.00651 788.614 4.59142C771.922 5.04813 754.654 5.52088 737.722 5.44877C668.626 5.14429 602.854 -4.014 542.218 -21.7617C519.61 -28.364 497.386 -36.3204 475.882 -44.0124C465.214 -47.8264 454.186 -51.7765 443.242 -55.5103C405.106 -68.5226 372.418 -76.7515 346.078 -79.9565L346.294 -80.7417C372.742 -77.5207 405.55 -69.2758 443.782 -56.2234C454.726 -52.4896 465.766 -48.5395 476.434 -44.7175C497.914 -37.0335 520.114 -29.0851 542.686 -22.4908C603.178 -4.78319 668.794 4.35105 737.722 4.65553C754.618 4.71963 771.874 4.24689 788.554 3.79819C810.322 3.20527 832.834 2.59631 855.322 3.12514C902.794 4.23086 954.262 10.5687 1012.67 22.5154C1024.53 24.9352 1036.71 27.5713 1049.89 30.584C1074.25 36.1607 1098.78 42.2662 1122.49 48.1634C1134.03 51.0399 1145.97 54.0045 1157.81 56.897C1203.86 68.0825 1252.26 78.9955 1299.06 89.548C1376.49 107.007 1456.57 125.059 1533.29 145.852L1532.83 146.597L1532.84 146.589Z" fill="url(#paint26_linear_138_4148)"></path>
      <path d="M1533.19 134.002C1441.98 108.21 1345.77 87.9219 1252.73 68.2913C1221.43 61.689 1189.07 54.8623 1157.9 48.0277C1147.55 45.7441 1137.24 43.4365 1126.97 41.1449C1101.51 35.4561 1075.2 29.5749 1049.11 24.2306C1035.87 21.5223 1023.63 19.1506 1011.69 16.9632C953.205 6.21043 901.857 0.377327 854.733 -0.864609C833.421 -1.42548 812.049 -1.10498 791.373 -0.784485C773.709 -0.512054 755.445 -0.231628 737.565 -0.528091C668.469 -1.70592 603.129 -11.4571 543.357 -29.5173C523.065 -35.6389 503.049 -42.8661 483.693 -49.861C471.081 -54.4122 458.049 -59.1235 445.053 -63.4903C407.481 -76.094 373.665 -83.794 347.277 -85.7571L347.409 -86.5503C373.941 -84.5792 407.889 -76.8552 445.593 -64.2034C458.613 -59.8366 471.657 -55.1253 484.269 -50.5662C503.601 -43.5793 523.593 -36.36 543.861 -30.2465C603.477 -12.2344 668.661 -2.50718 737.601 -1.32934C755.457 -1.03288 773.697 -1.31331 791.349 -1.58573C812.037 -1.90623 833.421 -2.23475 854.781 -1.66586C902.001 -0.423927 953.433 5.4172 1012.02 16.186C1023.97 18.3734 1036.22 20.7531 1049.47 23.4613C1075.57 28.8057 1101.9 34.6949 1127.36 40.3837C1137.63 42.6833 1147.93 44.9829 1158.29 47.2665C1189.44 54.1012 1221.8 60.9278 1253.09 67.5221C1346.16 87.1527 1442.4 107.448 1533.66 133.257L1533.19 133.994V134.002Z" fill="url(#paint27_linear_138_4148)"></path>
      <path d="M1533.54 121.414C1430.33 90.9982 1320.18 69.717 1213.66 49.1489C1195.48 45.6394 1176.68 42.0097 1158.41 38.4201C1150.28 36.8176 1142.18 35.2071 1134.11 33.6046C1106.17 28.052 1077.28 22.307 1048.7 17.1309C1035.43 14.7352 1023.12 12.6119 1011.06 10.6488C952.417 1.07388 901.093 -4.25443 854.173 -5.64059C834.217 -6.23352 814.177 -6.16142 794.809 -6.0893C775.957 -6.01719 756.469 -5.94508 737.413 -6.49794C668.293 -8.55715 603.397 -18.9093 544.513 -37.2579C526.153 -42.9708 508.009 -49.6052 490.465 -56.0232C476.269 -61.2153 461.593 -66.5837 446.857 -71.4392C420.625 -80.0847 382.273 -90.5891 348.469 -91.5186L348.517 -92.3198C382.525 -91.3824 421.057 -80.8379 447.385 -72.1524C462.133 -67.2888 476.833 -61.9124 491.041 -56.7203C508.573 -50.3103 526.693 -43.6839 545.017 -37.979C603.757 -19.6705 668.509 -9.34238 737.461 -7.29118C756.481 -6.73832 775.957 -6.81042 794.797 -6.88254C814.189 -6.95465 834.229 -7.02676 854.221 -6.43384C901.225 -5.04768 952.621 0.288651 1011.35 9.87962C1023.42 11.8427 1035.74 13.966 1049.03 16.3617C1077.61 21.5378 1106.51 27.2828 1134.46 32.8434C1142.53 34.4459 1150.62 36.0564 1158.74 37.659C1177.02 41.2405 1195.81 44.8702 1213.99 48.3877C1320.55 68.9718 1430.74 90.253 1534.02 120.692L1533.54 121.422V121.414Z" fill="url(#paint28_linear_138_4148)"></path>
      <path d="M1533.87 108.825C1420.68 74.0753 1298.28 52.9142 1179.9 32.4423C1172.88 31.2244 1165.87 30.0145 1158.9 28.8046L1145.47 26.457C1113.64 20.8963 1080.75 15.1353 1048.3 10.0233C1035 7.93206 1022.61 6.06516 1010.43 4.33445C951.669 -4.06264 900.381 -8.89418 853.605 -10.4246C835.317 -11.0255 816.945 -11.1697 799.173 -11.3059C778.833 -11.4582 757.785 -11.6264 737.253 -12.4838C668.121 -15.4324 603.669 -26.3775 545.661 -45.0225C528.957 -50.3829 512.409 -56.5285 496.425 -62.4658C480.921 -68.2267 464.877 -74.18 448.677 -79.4282C422.397 -87.9455 383.889 -97.9531 349.677 -97.3362L349.641 -98.1374C384.081 -98.7784 422.793 -88.7067 449.193 -80.1493C465.429 -74.8851 481.485 -68.9318 497.001 -63.1628C512.985 -57.2336 529.509 -51.096 546.177 -45.7437C604.041 -27.1467 668.361 -16.2176 737.325 -13.285C757.821 -12.4277 778.845 -12.2674 799.173 -12.1072C816.957 -11.971 835.353 -11.8268 853.653 -11.2258C900.489 -9.69543 951.849 -4.86389 1010.67 3.54923C1022.86 5.28794 1035.26 7.14684 1048.57 9.23811C1081.03 14.3581 1113.94 20.1111 1145.77 25.6798L1159.2 28.0274C1166.18 29.2373 1173.18 30.4472 1180.2 31.6651C1298.62 52.145 1421.07 73.3221 1534.36 108.096L1533.86 108.825H1533.87Z" fill="url(#paint29_linear_138_4148)"></path>
      <path d="M1534.22 96.239C1412.81 57.4585 1278.18 37.1308 1159.4 19.1908C1119.75 13.1654 1083.99 7.78098 1047.9 2.9174C1034.58 1.13061 1022.11 -0.471893 1009.79 -1.97824C950.986 -9.1975 899.71 -13.5243 853.03 -15.1989C836.854 -15.7838 820.582 -16.0883 804.826 -16.3767C782.554 -16.7934 759.514 -17.218 737.086 -18.4519C667.942 -22.2899 603.922 -33.8359 546.79 -52.7695C531.502 -57.8254 516.358 -63.5463 501.706 -69.0749C485.098 -75.3407 467.938 -81.8228 450.454 -87.3835C424.102 -95.7726 385.426 -105.299 350.842 -103.112L350.734 -103.913C385.594 -106.125 424.486 -96.5418 450.97 -88.1126C468.49 -82.5359 485.674 -76.0538 502.294 -69.78C516.934 -64.2514 532.066 -58.5385 547.33 -53.4906C604.33 -34.6051 668.206 -23.0912 737.194 -19.2532C759.598 -18.0193 782.614 -17.5946 804.874 -17.178C820.63 -16.8815 836.914 -16.585 853.102 -16.0001C899.83 -14.3255 951.154 -9.99074 1010.01 -2.76347C1022.34 -1.25711 1034.81 0.345383 1048.14 2.13217C1084.25 6.99576 1120.01 12.3802 1159.67 18.4056C1278.5 36.3456 1413.2 56.6893 1534.74 95.5099L1534.22 96.231V96.239Z" fill="url(#paint30_linear_138_4148)"></path>
      <path d="M1534.57 83.6506C1417.6 44.798 1285.34 25.7523 1159.91 9.5831C1129.15 5.59287 1088.59 0.416794 1047.5 -4.18238C1034.41 -5.64066 1021.51 -7.02682 1009.16 -8.28478C950.495 -14.3182 899.243 -18.1402 852.479 -19.975C839.075 -20.5038 825.539 -20.8884 812.459 -21.273C787.607 -21.9942 761.903 -22.7313 736.943 -24.43C667.799 -29.1734 604.211 -41.3203 547.955 -60.5183C533.903 -65.3097 519.959 -70.6701 506.483 -75.8542C488.975 -82.5847 470.855 -89.5476 452.279 -95.3566C414.911 -107.031 379.319 -111.846 352.055 -108.914L351.863 -109.707C371.315 -111.798 404.615 -111.141 452.783 -96.0857C471.407 -90.2607 489.539 -83.2978 507.071 -76.5513C520.547 -71.3752 534.467 -66.0148 548.495 -61.2394C604.619 -42.0815 668.063 -29.9666 737.063 -25.2312C761.987 -23.5326 787.667 -22.7954 812.507 -22.0743C825.599 -21.6977 839.135 -21.3051 852.551 -20.7763C899.351 -18.9414 950.639 -15.1194 1009.36 -9.07802C1021.7 -7.81204 1034.62 -6.43389 1047.71 -4.96761C1088.81 -0.368431 1129.38 4.80764 1160.14 8.79787C1285.66 24.9831 1417.99 44.0368 1535.11 82.9375L1534.57 83.6587V83.6506Z" fill="url(#paint31_linear_138_4148)"></path>
      <path d="M1534.9 71.0628C1414.94 29.6542 1278.68 12.6517 1160.4 -0.032074C1119.76 -4.42293 1082.7 -8.10066 1047.09 -11.2896C1034.17 -12.4434 1021.2 -13.5572 1008.52 -14.6068C950.421 -19.4303 899.193 -22.7555 851.913 -24.7586C842.289 -25.1673 832.557 -25.5359 823.149 -25.8964C794.697 -26.9781 765.273 -28.0919 736.785 -30.4075C667.617 -36.0643 604.473 -48.8042 549.093 -68.2745C536.133 -72.8256 523.257 -77.8735 510.801 -82.7531C492.525 -89.9163 473.625 -97.3278 454.077 -103.321C416.577 -114.827 380.769 -118.865 353.241 -114.699L352.977 -115.484C380.757 -119.683 416.841 -115.62 454.581 -104.05C474.189 -98.041 493.113 -90.6214 511.413 -83.4422C523.857 -78.5626 536.721 -73.5227 549.657 -68.9796C604.905 -49.5493 667.917 -36.8415 736.929 -31.2007C765.381 -28.8851 794.781 -27.7713 823.221 -26.6897C832.629 -26.3291 842.373 -25.9605 851.997 -25.5519C899.313 -23.5407 950.565 -20.2236 1008.68 -15.392C1021.35 -14.3424 1034.34 -13.2287 1047.26 -12.0749C1082.88 -8.8939 1119.96 -5.20816 1160.6 -0.817307C1278.98 11.8825 1415.35 28.901 1535.47 70.3577L1534.92 71.0708L1534.9 71.0628Z" fill="url(#paint32_linear_138_4148)"></path>
      <path d="M1535.25 58.4753C1419.26 16.9064 1286.78 1.16991 1160.89 -9.64697C1124.21 -12.8199 1085.78 -15.7605 1046.69 -18.3886C1034.17 -19.2299 1021.11 -20.0793 1007.89 -20.9126C953.254 -24.382 900.574 -27.2745 851.338 -29.526C847.234 -29.7103 843.142 -29.9026 839.05 -30.0869C805.246 -31.6093 770.302 -33.1877 736.618 -36.3767C667.45 -42.9469 604.738 -56.2878 550.234 -76.0225C538.234 -80.3653 526.294 -85.1408 514.762 -89.756C495.85 -97.3198 476.278 -105.148 455.878 -111.294C418.234 -122.623 382.21 -125.892 354.418 -120.5L354.082 -121.269C382.138 -126.71 418.462 -123.424 456.37 -112.023C476.842 -105.861 496.426 -98.0249 515.374 -90.445C526.906 -85.8298 538.822 -81.0624 550.81 -76.7276C605.182 -57.0409 667.762 -43.7322 736.798 -37.1779C770.446 -33.997 803.818 -32.4906 839.146 -30.8961C843.238 -30.7118 847.33 -30.5276 851.434 -30.3353C900.682 -28.0837 953.362 -25.1832 1008.01 -21.7218C1021.23 -20.8885 1034.29 -20.0392 1046.82 -19.1979C1085.93 -16.5698 1124.36 -13.6292 1161.06 -10.4482C1287.06 0.376663 1419.67 16.1292 1535.83 57.7622L1535.27 58.4673L1535.25 58.4753Z" fill="url(#paint33_linear_138_4148)"></path>
      <path d="M1535.6 45.8875C1418.33 2.26747 1280.63 -11.522 1161.39 -19.2621C1126.73 -21.5297 1090.15 -23.5087 1046.29 -25.4958C1033.35 -26.0808 1020.35 -26.6577 1007.27 -27.2265L980.987 -28.3804C938.339 -30.2473 894.227 -32.1783 850.787 -34.3096C813.815 -36.1284 774.527 -38.2437 736.463 -42.3542C667.283 -49.8539 605.015 -63.7876 551.387 -83.7708C540.239 -87.9212 529.139 -92.4563 518.411 -96.8392C498.959 -104.788 478.847 -113.008 457.679 -119.25C419.891 -130.404 383.639 -132.903 355.607 -126.285L355.211 -127.038C383.531 -133.721 420.095 -131.213 458.171 -119.979C479.411 -113.713 499.559 -105.477 519.047 -97.5202C529.763 -93.1374 540.851 -88.6103 551.975 -84.4679C605.483 -64.5247 667.619 -50.6231 736.667 -43.1394C774.683 -39.029 813.935 -36.9137 850.883 -35.1028C894.323 -32.9715 938.423 -31.0405 981.071 -29.1736L1007.35 -28.0198C1020.43 -27.4509 1033.44 -26.874 1046.37 -26.2891C1090.25 -24.302 1126.83 -22.3149 1161.51 -20.0554C1240.29 -14.9434 1299.86 -8.81383 1354.64 -0.184357C1424.15 10.7607 1483.52 25.6079 1536.18 45.1904L1535.59 45.8875H1535.6Z" fill="url(#paint34_linear_138_4148)"></path>
      <path d="M1535.94 33.3001C1418.2 -12.1228 1280.78 -23.6207 1161.89 -28.8769C1120.55 -30.7118 1080.05 -31.7935 1045.88 -32.6027L1038.61 -32.771C1027.99 -33.0194 1017.32 -33.2758 1006.63 -33.5402C956.832 -34.7741 903.408 -36.2965 850.224 -39.0848C804.12 -41.5046 768.996 -44.3571 736.308 -48.3313C666.144 -56.8806 606.036 -71.0066 552.528 -91.5266C542.148 -95.5089 531.804 -99.8276 521.796 -104.002C501.9 -112.311 481.32 -120.9 459.48 -127.222C408.276 -142.037 373.152 -136.629 356.784 -132.086L356.328 -132.823C372.876 -137.414 408.348 -142.887 459.96 -127.951C481.884 -121.606 502.5 -113 522.432 -104.675C532.428 -100.501 542.76 -96.1899 553.128 -92.2157C606.504 -71.7438 666.492 -57.6498 736.524 -49.1165C769.164 -45.1423 804.264 -42.2979 850.32 -39.8781C903.492 -37.0897 956.892 -35.5674 1006.68 -34.3334C1017.37 -34.069 1028.04 -33.8206 1038.66 -33.5642L1045.93 -33.396C1080.11 -32.5867 1120.62 -31.505 1161.98 -29.6702C1281.01 -24.4059 1418.6 -12.892 1536.55 32.611L1535.95 33.3081L1535.94 33.3001Z" fill="url(#paint35_linear_138_4148)"></path>
      <path d="M1536.29 20.7041C1471.29 -5.28847 1393.99 -22.2109 1299.93 -31.0246C1218.23 -38.6846 1132.94 -39.5098 1045.47 -39.7182C954.106 -39.9425 871.882 -40.7277 790.846 -48.1553C696.538 -56.8008 618.958 -73.5229 553.654 -99.2831C543.958 -103.113 534.286 -107.24 524.938 -111.23C504.67 -119.883 483.718 -128.833 461.266 -135.195C409.846 -149.778 374.458 -143.144 357.946 -137.895L357.43 -138.616C374.122 -143.929 409.882 -150.643 461.734 -135.932C484.282 -129.538 505.282 -120.572 525.586 -111.903C534.922 -107.913 544.582 -103.794 554.266 -99.9722C619.426 -74.2681 696.862 -57.578 791.002 -48.9486C871.966 -41.529 954.142 -40.7438 1045.47 -40.5194C1132.99 -40.3111 1218.31 -39.4858 1300.1 -31.8178C1394.31 -22.9881 1471.76 -6.03363 1536.9 20.015L1536.29 20.7041Z" fill="url(#paint36_linear_138_4148)"></path>
    </g>
  </g>
  <defs>
    <linearGradient id="paint0_linear_138_4148" x1="-15.1604" y1="560.226" x2="1428.7" y2="560.226" gradientUnits="userSpaceOnUse">
      <stop offset="0.06" stop-color="#F4F4F4"></stop>
      <stop offset="1" stop-color="#D7EDFD" stop-opacity="0"></stop>
    </linearGradient>
    <linearGradient id="paint1_linear_138_4148" x1="-12.5703" y1="578.703" x2="1431.65" y2="578.703" gradientUnits="userSpaceOnUse">
      <stop offset="0.06" stop-color="white"></stop>
      <stop offset="1" stop-color="#D7EDFD" stop-opacity="0"></stop>
    </linearGradient>
    <linearGradient id="paint2_linear_138_4148" x1="-9.89006" y1="597.115" x2="1434.62" y2="597.115" gradientUnits="userSpaceOnUse">
      <stop offset="0.06" stop-color="white"></stop>
      <stop offset="1" stop-color="#D7EDFD" stop-opacity="0"></stop>
    </linearGradient>
    <linearGradient id="paint3_linear_138_4148" x1="-7.21456" y1="615.072" x2="1437.59" y2="615.072" gradientUnits="userSpaceOnUse">
      <stop offset="0.06" stop-color="white"></stop>
      <stop offset="1" stop-color="#D7EDFD" stop-opacity="0"></stop>
    </linearGradient>
    <linearGradient id="paint4_linear_138_4148" x1="-4.53878" y1="625.912" x2="1440.56" y2="625.912" gradientUnits="userSpaceOnUse">
      <stop offset="0.06" stop-color="white"></stop>
      <stop offset="1" stop-color="#D7EDFD" stop-opacity="0"></stop>
    </linearGradient>
    <linearGradient id="paint5_linear_138_4148" x1="-1.86328" y1="636.697" x2="1443.52" y2="636.697" gradientUnits="userSpaceOnUse">
      <stop offset="0.06" stop-color="white"></stop>
      <stop offset="1" stop-color="#D7EDFD" stop-opacity="0"></stop>
    </linearGradient>
    <linearGradient id="paint6_linear_138_4148" x1="0.8125" y1="647.45" x2="1446.5" y2="647.45" gradientUnits="userSpaceOnUse">
      <stop stop-color="white"></stop>
      <stop offset="1" stop-color="#D7EDFD" stop-opacity="0"></stop>
    </linearGradient>
    <linearGradient id="paint7_linear_138_4148" x1="3.488" y1="658.163" x2="1449.46" y2="658.163" gradientUnits="userSpaceOnUse">
      <stop offset="0.06" stop-color="white"></stop>
      <stop offset="1" stop-color="#D7EDFD" stop-opacity="0"></stop>
    </linearGradient>
    <linearGradient id="paint8_linear_138_4148" x1="6.17188" y1="668.828" x2="1452.42" y2="668.828" gradientUnits="userSpaceOnUse">
      <stop offset="0.06" stop-color="white"></stop>
      <stop offset="1" stop-color="#D7EDFD" stop-opacity="0"></stop>
    </linearGradient>
    <linearGradient id="paint9_linear_138_4148" x1="8.85156" y1="679.428" x2="1455.4" y2="679.428" gradientUnits="userSpaceOnUse">
      <stop offset="0.06" stop-color="white"></stop>
      <stop offset="1" stop-color="#D7EDFD" stop-opacity="0"></stop>
    </linearGradient>
    <linearGradient id="paint10_linear_138_4148" x1="712.53" y1="763.224" x2="712.53" y2="580.426" gradientUnits="userSpaceOnUse">
      <stop offset="0.06" stop-color="white"></stop>
      <stop offset="1" stop-color="#D7EDFD" stop-opacity="0"></stop>
    </linearGradient>
    <linearGradient id="paint11_linear_138_4148" x1="501.98" y1="530.083" x2="1440.58" y2="530.083" gradientUnits="userSpaceOnUse">
      <stop stop-color="#D7EDFD" stop-opacity="0"></stop>
      <stop offset="0.94" stop-color="white"></stop>
    </linearGradient>
    <linearGradient id="paint12_linear_138_4148" x1="-10.4219" y1="553.175" x2="951.69" y2="553.175" gradientUnits="userSpaceOnUse">
      <stop offset="0.06" stop-color="white"></stop>
      <stop offset="1" stop-color="#D7EDFD" stop-opacity="0"></stop>
    </linearGradient>
    <linearGradient id="paint13_linear_138_4148" x1="719.994" y1="108.801" x2="719.994" y2="-31.7859" gradientUnits="userSpaceOnUse">
      <stop stop-color="#D7EDFD" stop-opacity="0"></stop>
      <stop offset="0.94" stop-color="white"></stop>
    </linearGradient>
    <linearGradient id="paint14_linear_138_4148" x1="-11.3786" y1="124.851" x2="995.973" y2="124.851" gradientUnits="userSpaceOnUse">
      <stop offset="0.06" stop-color="white"></stop>
      <stop offset="1" stop-color="white" stop-opacity="0"></stop>
    </linearGradient>
    <linearGradient id="paint15_linear_138_4148" x1="333.117" y1="134.049" x2="1529.34" y2="134.049" gradientUnits="userSpaceOnUse">
      <stop stop-color="#D7EDFD" stop-opacity="0"></stop>
      <stop offset="0.94" stop-color="white"></stop>
    </linearGradient>
    <linearGradient id="paint16_linear_138_4148" x1="334.281" y1="124.851" x2="1529.7" y2="124.851" gradientUnits="userSpaceOnUse">
      <stop stop-color="#D7EDFD" stop-opacity="0"></stop>
      <stop offset="0.94" stop-color="white"></stop>
    </linearGradient>
    <linearGradient id="paint17_linear_138_4148" x1="335.461" y1="115.661" x2="1530.06" y2="115.661" gradientUnits="userSpaceOnUse">
      <stop stop-color="#D7EDFD" stop-opacity="0"></stop>
      <stop offset="0.94" stop-color="white"></stop>
    </linearGradient>
    <linearGradient id="paint18_linear_138_4148" x1="336.621" y1="106.462" x2="1530.42" y2="106.462" gradientUnits="userSpaceOnUse">
      <stop stop-color="#D7EDFD" stop-opacity="0"></stop>
      <stop offset="0.94" stop-color="white"></stop>
    </linearGradient>
    <linearGradient id="paint19_linear_138_4148" x1="337.801" y1="97.2723" x2="1530.78" y2="97.2723" gradientUnits="userSpaceOnUse">
      <stop stop-color="#D7EDFD" stop-opacity="0"></stop>
      <stop offset="0.94" stop-color="#FEFEFE"></stop>
    </linearGradient>
    <linearGradient id="paint20_linear_138_4148" x1="338.972" y1="88.0734" x2="1531.14" y2="88.0734" gradientUnits="userSpaceOnUse">
      <stop stop-color="white" stop-opacity="0"></stop>
      <stop offset="0.94" stop-color="white"></stop>
    </linearGradient>
    <linearGradient id="paint21_linear_138_4148" x1="340.16" y1="78.8835" x2="1531.5" y2="78.8835" gradientUnits="userSpaceOnUse">
      <stop stop-color="white" stop-opacity="0"></stop>
      <stop offset="0.94" stop-color="#F1F1F1"></stop>
    </linearGradient>
    <linearGradient id="paint22_linear_138_4148" x1="341.336" y1="69.6848" x2="1531.86" y2="69.6848" gradientUnits="userSpaceOnUse">
      <stop stop-color="white" stop-opacity="0"></stop>
      <stop offset="0.94" stop-color="white"></stop>
    </linearGradient>
    <linearGradient id="paint23_linear_138_4148" x1="342.523" y1="60.4939" x2="1532.22" y2="60.4939" gradientUnits="userSpaceOnUse">
      <stop stop-color="white" stop-opacity="0"></stop>
      <stop offset="0.94" stop-color="white"></stop>
    </linearGradient>
    <linearGradient id="paint24_linear_138_4148" x1="343.711" y1="51.3041" x2="1532.57" y2="51.3041" gradientUnits="userSpaceOnUse">
      <stop stop-color="white" stop-opacity="0"></stop>
      <stop offset="0.94" stop-color="white"></stop>
    </linearGradient>
    <linearGradient id="paint25_linear_138_4148" x1="344.903" y1="42.1059" x2="1532.94" y2="42.1059" gradientUnits="userSpaceOnUse">
      <stop stop-color="white" stop-opacity="0"></stop>
      <stop offset="0.94" stop-color="white"></stop>
    </linearGradient>
    <linearGradient id="paint26_linear_138_4148" x1="346.09" y1="32.9156" x2="1533.3" y2="32.9156" gradientUnits="userSpaceOnUse">
      <stop stop-color="white" stop-opacity="0"></stop>
      <stop offset="0.94" stop-color="white"></stop>
    </linearGradient>
    <linearGradient id="paint27_linear_138_4148" x1="347.277" y1="23.7258" x2="1533.66" y2="23.7258" gradientUnits="userSpaceOnUse">
      <stop stop-color="white" stop-opacity="0"></stop>
      <stop offset="0.94" stop-color="white"></stop>
    </linearGradient>
    <linearGradient id="paint28_linear_138_4148" x1="348.481" y1="14.5349" x2="1534.02" y2="14.5349" gradientUnits="userSpaceOnUse">
      <stop stop-color="white" stop-opacity="0"></stop>
      <stop offset="0.94" stop-color="#FEFEFE"></stop>
    </linearGradient>
    <linearGradient id="paint29_linear_138_4148" x1="349.629" y1="5.33603" x2="1534.38" y2="5.33603" gradientUnits="userSpaceOnUse">
      <stop stop-color="white" stop-opacity="0"></stop>
      <stop offset="0.94" stop-color="white"></stop>
    </linearGradient>
    <linearGradient id="paint30_linear_138_4148" x1="350.746" y1="-3.9974" x2="1534.74" y2="-3.9974" gradientUnits="userSpaceOnUse">
      <stop stop-color="white" stop-opacity="0"></stop>
      <stop offset="0.94" stop-color="white"></stop>
    </linearGradient>
    <linearGradient id="paint31_linear_138_4148" x1="351.851" y1="-13.4608" x2="1535.1" y2="-13.4608" gradientUnits="userSpaceOnUse">
      <stop stop-color="#FEFEFE" stop-opacity="0"></stop>
      <stop offset="0.94" stop-color="white"></stop>
    </linearGradient>
    <linearGradient id="paint32_linear_138_4148" x1="352.965" y1="-23.0199" x2="1535.46" y2="-23.0199" gradientUnits="userSpaceOnUse">
      <stop stop-color="white" stop-opacity="0"></stop>
      <stop offset="0.94" stop-color="white"></stop>
    </linearGradient>
    <linearGradient id="paint33_linear_138_4148" x1="354.082" y1="-32.6829" x2="1535.82" y2="-32.6829" gradientUnits="userSpaceOnUse">
      <stop stop-color="white" stop-opacity="0"></stop>
      <stop offset="0.94" stop-color="white"></stop>
    </linearGradient>
    <linearGradient id="paint34_linear_138_4148" x1="355.199" y1="-42.4182" x2="1536.18" y2="-42.4182" gradientUnits="userSpaceOnUse">
      <stop stop-color="white" stop-opacity="0"></stop>
      <stop offset="0.94" stop-color="white"></stop>
    </linearGradient>
    <linearGradient id="paint35_linear_138_4148" x1="356.316" y1="-52.2093" x2="1536.54" y2="-52.2093" gradientUnits="userSpaceOnUse">
      <stop stop-color="#D7EDFD" stop-opacity="0"></stop>
      <stop offset="0.94" stop-color="white"></stop>
    </linearGradient>
    <linearGradient id="paint36_linear_138_4148" x1="357.442" y1="-62.073" x2="1536.9" y2="-62.073" gradientUnits="userSpaceOnUse">
      <stop stop-color="#D7EDFD" stop-opacity="0"></stop>
      <stop offset="0.94" stop-color="white"></stop>
    </linearGradient>
  </defs>
</svg>
