<svg width="53" height="23" viewBox="0 0 53 23" fill="none" xmlns="http://www.w3.org/2000/svg">
<path d="M33.7312 9.44866C33.7175 6.561 33.7038 3.67333 33.6855 0.78566C33.6855 0.424702 33.6947 0.0820226 34.1973 0.0957298C38.0673 0.177974 41.9739 -0.278932 45.8074 0.292204C50.3216 0.963861 52.958 5.21768 51.9436 9.67712C50.1114 9.25219 48.2472 9.53091 46.4013 9.43952C45.9673 9.41668 45.4784 9.61315 45.1311 9.16538C45.6063 8.65821 46.0632 8.15561 45.6977 7.36516C45.3367 6.58384 44.7016 6.41021 43.9203 6.44677C43.3172 6.47418 42.7095 6.45134 42.1018 6.45134C40.1889 6.45134 39.3436 7.42304 39.566 9.36642C37.6195 9.38927 35.6777 9.41668 33.7312 9.43952V9.44866Z" fill="white"/>
<path d="M45.1275 9.16992C45.4748 9.61769 45.9637 9.42122 46.3977 9.44407C48.2437 9.53545 50.1078 9.25216 51.9401 9.68166C50.8846 13.5471 47.4441 15.9505 43.6243 15.6763C42.7562 15.6123 41.8743 15.7129 41.0016 15.6535C40.2112 15.6032 39.9188 15.8636 39.9508 16.6769C40.0056 18.1573 39.937 19.6423 39.9782 21.1227C39.9964 21.8126 39.7817 22.0548 39.0735 22.0319C37.5566 21.9862 36.0305 21.9908 34.5135 22.0319C33.8693 22.0502 33.6591 21.84 33.6683 21.1912C33.7094 17.2755 33.7094 13.3643 33.7276 9.44864C35.6741 9.42579 37.6159 9.39838 39.5624 9.37553C41.4174 9.29786 43.2862 9.61312 45.1275 9.16992Z" fill="white"/>
<path d="M10.5988 9.91015C10.9506 10.7737 11.307 11.6373 11.7228 12.6516C12.1705 11.5824 12.5726 10.6321 12.9747 9.67713C15.1085 9.78679 17.2605 9.42126 19.3851 9.91473C18.0555 13.7299 16.7214 17.5405 15.41 21.3557C15.2318 21.872 14.9485 22.0365 14.4094 22.0274C12.8148 21.9954 11.2156 21.9954 9.62098 22.0274C9.05442 22.0365 8.74829 21.8857 8.53354 21.3055C7.17195 17.5771 5.76467 13.8716 4.37109 10.1569C4.78688 10.1477 5.20724 10.1569 5.62303 10.134C7.28161 10.0427 8.95846 10.3579 10.6033 9.91015H10.5988Z" fill="white"/>
<path d="M30.5281 21.9768C28.5451 21.9768 26.5622 21.9676 24.5792 21.9631C24.5289 21.9037 24.4741 21.8488 24.4238 21.7894C24.4238 18.1342 24.4238 14.4789 24.4238 10.8236C26.5165 10.8236 28.6091 10.8236 30.7018 10.8236C30.7018 14.4789 30.7018 18.1342 30.7018 21.7894C30.6424 21.8534 30.583 21.9174 30.519 21.9768H30.5281Z" fill="white"/>
<path d="M30.7069 10.8194C28.6142 10.8194 26.5216 10.8194 24.4289 10.8194C24.4106 7.4748 24.4061 4.13022 24.3741 0.790215C24.3695 0.232785 24.5934 0.0728657 25.1143 0.0820039C26.75 0.104849 28.3858 0.113988 30.0169 0.0820039C30.6657 0.0682966 30.7617 0.36072 30.7571 0.904442C30.7297 4.21246 30.7251 7.51592 30.7114 10.8239L30.7069 10.8194Z" fill="white"/>
<path d="M10.5977 9.91041C8.95282 10.3582 7.27597 10.0429 5.61739 10.1343C5.2016 10.1571 4.78124 10.1526 4.36546 10.1571C3.09525 6.84912 1.82504 3.53653 0.5 0.0914297C2.55609 0.0914297 4.41115 0.114276 6.2662 0.077723C6.81449 0.0685848 6.97441 0.361006 7.12976 0.776794C8.28117 3.82438 9.43715 6.86282 10.5977 9.90584V9.91041Z" fill="white"/>
<path d="M19.3792 9.919C17.2591 9.42554 15.1071 9.79107 12.9688 9.68141C14.1065 6.66581 15.2533 3.65021 16.3773 0.630036C16.5372 0.195972 16.8114 0.0817441 17.2454 0.0863131C18.8812 0.10459 20.5169 0.109159 22.1526 0.0863131C22.7649 0.077175 22.8837 0.314772 22.6918 0.840218C21.5861 3.86496 20.4849 6.89426 19.3792 9.919Z" fill="white"/>
</svg>
