<?xml version="1.0" encoding="UTF-8"?>
<svg xmlns="http://www.w3.org/2000/svg" width="40" height="40" viewBox="0 0 40 40" fill="none">
  <circle cx="20" cy="20" r="20" fill="#AEECFF"></circle>
  <g clip-path="url(#clip0_929_1209)">
    <path d="M28.4843 27.4587L27.7039 26.6783L26.4503 25.4268L28.4713 23.4058C28.5573 23.3197 28.6202 23.2132 28.6543 23.0963C28.6883 22.9794 28.6923 22.8558 28.6659 22.737C28.6396 22.6181 28.5837 22.5078 28.5035 22.4162C28.4232 22.3247 28.3212 22.2548 28.2068 22.2131L21.7075 19.8551C21.4486 19.7615 21.1685 19.7436 20.8998 19.8035C20.6311 19.8633 20.385 19.9985 20.1903 20.1931C19.9956 20.3877 19.8604 20.6337 19.8004 20.9024C19.7405 21.1711 19.7583 21.4512 19.8517 21.7102L22.2162 28.2094C22.2577 28.3239 22.3274 28.4261 22.4189 28.5065C22.5103 28.5869 22.6206 28.643 22.7394 28.6696C22.7911 28.6808 22.8438 28.6864 22.8967 28.6863C23.0888 28.6862 23.2731 28.6098 23.409 28.4739L25.4278 26.4493L26.6793 27.7007L27.4597 28.4812C27.5964 28.6132 27.7794 28.6862 27.9694 28.6846C28.1594 28.6829 28.3412 28.6067 28.4755 28.4724C28.6099 28.338 28.6861 28.1562 28.6877 27.9663C28.6894 27.7763 28.6163 27.5932 28.4843 27.4565V27.4587ZM23.1894 26.6413L21.2155 21.2138L26.643 23.1877L23.1894 26.6413Z" fill="#457EDA"></path>
    <path d="M18.5511 25.7972C17.1179 25.7972 15.7169 25.3722 14.5252 24.576C13.3335 23.7797 12.4047 22.648 11.8563 21.3239C11.3078 19.9998 11.1643 18.5428 11.4439 17.1371C11.7235 15.7315 12.4137 14.4403 13.4271 13.4269C14.4405 12.4134 15.7317 11.7233 17.1374 11.4437C18.543 11.1641 20 11.3076 21.3241 11.856C22.6482 12.4045 23.78 13.3333 24.5762 14.525C25.3724 15.7166 25.7974 17.1176 25.7974 18.5508C25.7974 18.743 25.7211 18.9273 25.5852 19.0632C25.4493 19.1991 25.265 19.2755 25.0728 19.2755C24.8806 19.2755 24.6963 19.1991 24.5604 19.0632C24.4245 18.9273 24.3482 18.743 24.3482 18.5508C24.3482 17.4043 24.0082 16.2835 23.3712 15.3301C22.7342 14.3768 21.8288 13.6338 20.7695 13.195C19.7102 12.7562 18.5446 12.6414 17.4201 12.8651C16.2956 13.0888 15.2626 13.6409 14.4519 14.4517C13.6412 15.2624 13.089 16.2953 12.8654 17.4199C12.6417 18.5444 12.7565 19.71 13.1952 20.7693C13.634 21.8286 14.377 22.7339 15.3304 23.3709C16.2837 24.0079 17.4045 24.3479 18.5511 24.3479C18.7433 24.3479 18.9276 24.4243 19.0635 24.5602C19.1994 24.6961 19.2757 24.8804 19.2757 25.0726C19.2757 25.2647 19.1994 25.4491 19.0635 25.585C18.9276 25.7209 18.7433 25.7972 18.5511 25.7972Z" fill="#457EDA"></path>
    <path d="M17.1608 22.6232C17.0656 22.6233 16.9713 22.6046 16.8833 22.5682C16.223 22.294 15.6406 21.8611 15.1875 21.3081C14.7345 20.755 14.4248 20.0988 14.2859 19.3974C14.1471 18.6961 14.1833 17.9714 14.3914 17.2874C14.5995 16.6034 14.973 15.9813 15.4789 15.4762C15.9848 14.971 16.6075 14.5984 17.2918 14.3914C17.9761 14.1843 18.7009 14.1492 19.402 14.2892C20.1031 14.4291 20.7589 14.7398 21.3113 15.1937C21.8636 15.6476 22.2956 16.2307 22.5688 16.8914C22.6071 16.9796 22.6274 17.0746 22.6286 17.1709C22.6298 17.2671 22.6118 17.3625 22.5757 17.4517C22.5396 17.5409 22.4861 17.622 22.4183 17.6903C22.3505 17.7586 22.2698 17.8127 22.1809 17.8494C22.0919 17.8862 21.9966 17.9049 21.9004 17.9044C21.8042 17.9039 21.709 17.8843 21.6205 17.8466C21.5319 17.809 21.4517 17.7541 21.3846 17.6851C21.3176 17.6162 21.2649 17.5345 21.2296 17.445C21.0471 17.0049 20.7589 16.6167 20.3905 16.3146C20.0221 16.0124 19.585 15.8058 19.1177 15.7128C18.6504 15.6199 18.1675 15.6436 17.7116 15.7818C17.2556 15.92 16.8408 16.1684 16.5037 16.5052C16.1667 16.8419 15.9179 17.2565 15.7792 17.7123C15.6406 18.1681 15.6165 18.651 15.7089 19.1184C15.8014 19.5857 16.0077 20.0231 16.3094 20.3917C16.6112 20.7604 16.9992 21.049 17.4391 21.2319C17.5941 21.2961 17.722 21.4121 17.8011 21.56C17.8802 21.708 17.9054 21.8788 17.8726 22.0433C17.8398 22.2079 17.7508 22.3559 17.621 22.4622C17.4912 22.5685 17.3286 22.6264 17.1608 22.6261V22.6232Z" fill="#457EDA"></path>
  </g>
  <defs>
    <clipPath id="clip0_929_1209">
      <rect width="17.3913" height="17.3913" fill="white" transform="translate(11.3047 11.3044)"></rect>
    </clipPath>
  </defs>
</svg>
