<svg width="25" height="24" viewBox="0 0 25 24" fill="none" xmlns="http://www.w3.org/2000/svg">
<circle cx="12.5" cy="12" r="12" fill="#6ED36C"/>
<path d="M10.8635 14.2909L8.9544 12.3818C8.90448 12.3313 8.84502 12.2912 8.77948 12.2638C8.71394 12.2364 8.64361 12.2223 8.57258 12.2223C8.50155 12.2223 8.43122 12.2364 8.36568 12.2638C8.30014 12.2912 8.24068 12.3313 8.19076 12.3818C8.14023 12.4317 8.10011 12.4912 8.07273 12.5567C8.04535 12.6223 8.03125 12.6926 8.03125 12.7636C8.03125 12.8347 8.04535 12.905 8.07273 12.9705C8.10011 13.0361 8.14023 13.0955 8.19076 13.1455L10.4762 15.4309C10.6889 15.6436 11.0326 15.6436 11.2453 15.4309L17.0271 9.65455C17.0777 9.60463 17.1178 9.54517 17.1452 9.47963C17.1725 9.41409 17.1866 9.34376 17.1866 9.27273C17.1866 9.2017 17.1725 9.13137 17.1452 9.06583C17.1178 9.00029 17.0777 8.94083 17.0271 8.89091C16.9772 8.84038 16.9177 8.80026 16.8522 8.77288C16.7867 8.7455 16.7163 8.7314 16.6453 8.7314C16.5743 8.7314 16.504 8.7455 16.4384 8.77288C16.3729 8.80026 16.3134 8.84038 16.2635 8.89091L10.8635 14.2909Z" fill="white"/>
</svg>
